<svg width="35" height="35" viewBox="0 0 35 35" fill="none" xmlns="http://www.w3.org/2000/svg">
<path fill-rule="evenodd" clip-rule="evenodd" d="M3.66771 15.5662C3.41373 15.8202 3.21225 16.1216 3.07479 16.4534C2.93733 16.7852 2.86658 17.1409 2.86658 17.5C2.86658 17.8591 2.93733 18.2148 3.07479 18.5466C3.21225 18.8784 3.41373 19.1798 3.66771 19.4338L12.9646 28.7292C13.4779 29.241 14.1735 29.5298 14.8983 29.5298H28.4375C29.5978 29.5298 30.7106 29.0689 31.5311 28.2484C32.3516 27.4279 32.8125 26.3151 32.8125 25.1548V9.84375C32.8125 8.68343 32.3516 7.57063 31.5311 6.75016C30.7106 5.92969 29.5978 5.46875 28.4375 5.46875H14.8983C14.1735 5.46875 13.4779 5.7575 12.9646 6.27083L3.66771 15.5662ZM18.2729 13.4458C18.1728 13.3384 18.052 13.2522 17.9179 13.1924C17.7837 13.1326 17.6389 13.1005 17.492 13.0979C17.3452 13.0953 17.1993 13.1223 17.0631 13.1773C16.9269 13.2323 16.8032 13.3142 16.6993 13.4181C16.5955 13.5219 16.5136 13.6456 16.4586 13.7818C16.4036 13.918 16.3765 14.0639 16.3791 14.2108C16.3817 14.3576 16.4139 14.5025 16.4737 14.6366C16.5334 14.7708 16.6196 14.8915 16.7271 14.9917L19.2354 17.5L16.7271 20.0083C16.6196 20.1085 16.5334 20.2292 16.4737 20.3634C16.4139 20.4975 16.3817 20.6424 16.3791 20.7892C16.3765 20.9361 16.4036 21.082 16.4586 21.2182C16.5136 21.3544 16.5955 21.4781 16.6993 21.5819C16.8032 21.6858 16.9269 21.7677 17.0631 21.8227C17.1993 21.8777 17.3452 21.9047 17.492 21.9021C17.6389 21.8995 17.7837 21.8674 17.9179 21.8076C18.052 21.7478 18.1728 21.6616 18.2729 21.5542L20.7813 19.0458L23.2896 21.5542C23.3897 21.6616 23.5105 21.7478 23.6446 21.8076C23.7788 21.8674 23.9236 21.8995 24.0705 21.9021C24.2174 21.9047 24.3632 21.8777 24.4994 21.8227C24.6356 21.7677 24.7593 21.6858 24.8632 21.5819C24.967 21.4781 25.0489 21.3544 25.1039 21.2182C25.1589 21.082 25.186 20.9361 25.1834 20.7892C25.1808 20.6424 25.1486 20.4975 25.0889 20.3634C25.0291 20.2292 24.9429 20.1085 24.8354 20.0083L22.3271 17.5L24.8354 14.9917C24.9429 14.8915 25.0291 14.7708 25.0889 14.6366C25.1486 14.5025 25.1808 14.3576 25.1834 14.2108C25.186 14.0639 25.1589 13.918 25.1039 13.7818C25.0489 13.6456 24.967 13.5219 24.8632 13.4181C24.7593 13.3142 24.6356 13.2323 24.4994 13.1773C24.3632 13.1223 24.2174 13.0953 24.0705 13.0979C23.9236 13.1005 23.7788 13.1326 23.6446 13.1924C23.5105 13.2522 23.3897 13.3384 23.2896 13.4458L20.7813 15.9542L18.2729 13.4458Z" fill="black"/>
</svg>
