<svg width="38" height="38" viewBox="0 0 38 38" fill="none" xmlns="http://www.w3.org/2000/svg">
<g clip-path="url(#clip0_4465_5036)">
<path d="M37.4315 23.5962C34.8936 33.7749 24.5831 39.9694 14.4021 37.4312C4.22533 34.8936 -1.9699 24.5836 0.569086 14.4057C3.10584 4.22596 13.4163 -1.96904 23.5942 0.568545C33.7745 3.10613 39.9694 13.4172 37.4312 23.5964L37.4314 23.5962H37.4315Z" fill="#F7931A"/>
<path d="M27.3791 16.293C27.7573 13.7645 25.832 12.4054 23.1994 11.4987L24.0535 8.07364L21.9683 7.55412L21.1369 10.889C20.5887 10.7523 20.0258 10.6235 19.4663 10.4958L20.3037 7.1389L18.2198 6.61938L17.3653 10.0433C16.9117 9.94005 16.4661 9.83799 16.0339 9.73045L16.0363 9.71967L13.1608 9.00169L12.6061 11.2285C12.6061 11.2285 14.1531 11.5831 14.1205 11.6049C14.9649 11.8157 15.1176 12.3746 15.0923 12.8175L14.1194 16.7195C14.1776 16.7343 14.253 16.7556 14.3362 16.789C14.2666 16.7718 14.1926 16.7529 14.1158 16.7345L12.7522 22.2006C12.649 22.4571 12.3871 22.8421 11.7968 22.6959C11.8177 22.7262 10.2812 22.3177 10.2812 22.3177L9.24597 24.7043L11.9595 25.3807C12.4643 25.5072 12.959 25.6397 13.4461 25.7642L12.5833 29.2286L14.666 29.7481L15.5205 26.3205C16.0895 26.475 16.6417 26.6174 17.1823 26.7517L16.3306 30.1631L18.4159 30.6826L19.2787 27.2248C22.8343 27.8976 25.5079 27.6264 26.6332 24.4106C27.54 21.8216 26.5881 20.3282 24.7175 19.3544C26.0799 19.0402 27.1062 18.1442 27.3798 16.2933L27.3792 16.2928L27.3791 16.293ZM22.6149 22.9728C21.9705 25.5618 17.6109 24.1623 16.1974 23.8113L17.3425 19.2217C18.7558 19.5745 23.2884 20.2727 22.615 22.9728H22.6149ZM23.2598 16.2555C22.672 18.6105 19.0434 17.4141 17.8663 17.1207L18.9044 12.9582C20.0815 13.2515 23.8722 13.7991 23.26 16.2555H23.2598Z" fill="white"/>
</g>
<defs>
<clipPath id="clip0_4465_5036">
<rect width="38" height="38" fill="white"/>
</clipPath>
</defs>
</svg>
