<svg width="25" height="24" viewBox="0 0 25 24" fill="none" xmlns="http://www.w3.org/2000/svg">
<path d="M11.7375 2.50024H13.2622L13.3071 3.24424C13.5647 7.51599 16.9841 10.9353 21.2557 11.193L21.9997 11.2378V12.7626L21.2557 12.8075C16.9841 13.0652 13.5647 16.4846 13.3071 20.7562L13.2622 21.5002H11.7375L11.6926 20.7562C11.435 16.4846 8.01557 13.0652 3.74405 12.8075L3.00006 12.7626V11.2378L3.74405 11.193C8.01557 10.9353 11.435 7.51599 11.6926 3.24424L11.7375 2.50024ZM12.4999 6.64472C11.4811 9.05274 9.55236 10.9815 7.14441 12.0002C9.55236 13.019 11.4811 14.9478 12.4999 17.3558C13.5186 14.9478 15.4473 13.019 17.8553 12.0002C15.4473 10.9815 13.5186 9.05274 12.4999 6.64472Z" fill="#3C3C43" fill-opacity="0.6"/>
<path d="M12.8516 2.93579L12.8721 3.27075C13.1431 7.76221 16.7382 11.3563 21.2296 11.6272L21.5645 11.6467V12.3528L21.2296 12.3733C16.7382 12.6442 13.1431 16.2384 12.8721 20.7297L12.8516 21.0647H12.1475L12.127 20.7297C11.856 16.2385 8.26168 12.6444 3.77057 12.3733L3.43561 12.3528V11.6467L3.77057 11.6272C8.26166 11.3561 11.856 7.76209 12.127 3.27075L12.1475 2.93579H12.8516ZM12.0987 6.47485C11.124 8.77861 9.27833 10.6243 6.97467 11.5989L6.0274 12.0002L6.97467 12.4016C9.27833 13.3763 11.124 15.2219 12.0987 17.5256L12.5001 18.4729L12.9005 17.5256C13.875 15.2219 15.7217 13.3763 18.0255 12.4016L18.9727 12.0002L18.0255 11.5989C15.7217 10.6243 13.875 8.77861 12.9005 6.47485L12.5001 5.52759L12.0987 6.47485Z" stroke="#3C3C43" stroke-opacity="0.6" stroke-width="0.870818"/>
</svg>
