<svg width="20" height="20" viewBox="0 0 20 20" fill="none" xmlns="http://www.w3.org/2000/svg">
<path fill-rule="evenodd" clip-rule="evenodd" d="M8.22 5.21934C8.36062 5.07889 8.55125 5 8.75 5C8.94875 5 9.13937 5.07889 9.28 5.21934L13.53 9.46934C13.6704 9.60997 13.7493 9.80059 13.7493 9.99934C13.7493 10.1981 13.6704 10.3887 13.53 10.5293L9.28 14.7793C9.13782 14.9118 8.94978 14.9839 8.75547 14.9805C8.56117 14.9771 8.37579 14.8984 8.23837 14.761C8.10096 14.6235 8.02225 14.4382 8.01882 14.2439C8.01539 14.0496 8.08752 13.8615 8.22 13.7193L11.94 9.99934L8.22 6.27934C8.07955 6.13871 8.00066 5.94809 8.00066 5.74934C8.00066 5.55059 8.07955 5.35997 8.22 5.21934Z" fill="#3C3C43" fill-opacity="0.6"/>
</svg>
