<svg width="24" height="24" viewBox="0 0 24 24" fill="none" xmlns="http://www.w3.org/2000/svg">
<path fill-rule="evenodd" clip-rule="evenodd" d="M14.136 6.26418C14.3045 6.43293 14.3992 6.66168 14.3992 6.90018C14.3992 7.13869 14.3045 7.36743 14.136 7.53618L9.672 12.0002L14.136 16.4642C14.2244 16.5466 14.2953 16.6459 14.3445 16.7563C14.3937 16.8667 14.4202 16.9859 14.4223 17.1068C14.4244 17.2276 14.4022 17.3476 14.3569 17.4597C14.3117 17.5718 14.2443 17.6736 14.1588 17.759C14.0734 17.8445 13.9716 17.9119 13.8595 17.9571C13.7475 18.0024 13.6274 18.0246 13.5066 18.0225C13.3857 18.0204 13.2666 17.9939 13.1562 17.9447C13.0458 17.8955 12.9464 17.8246 12.864 17.7362L7.764 12.6362C7.59546 12.4674 7.50079 12.2387 7.50079 12.0002C7.50079 11.7617 7.59546 11.5329 7.764 11.3642L12.864 6.26418C13.0328 6.09564 13.2615 6.00098 13.5 6.00098C13.7385 6.00098 13.9673 6.09564 14.136 6.26418Z" fill="black"/>
</svg>
