<svg width="25" height="24" viewBox="0 0 25 24" fill="none" xmlns="http://www.w3.org/2000/svg">
<path d="M12.5 2.75C17.6089 2.75 21.75 6.89114 21.75 12C21.75 17.1089 17.6089 21.25 12.5 21.25C7.39114 21.25 3.25 17.1089 3.25 12C3.25 6.89114 7.39114 2.75 12.5 2.75ZM12.5 4.75C12.1685 4.75 11.8506 4.88179 11.6162 5.11621C11.3818 5.35063 11.25 5.66848 11.25 6V12C11.25 12.6901 11.8099 13.25 12.5 13.25H17C17.3315 13.25 17.6494 13.1182 17.8838 12.8838C18.1182 12.6494 18.25 12.3315 18.25 12C18.25 11.6685 18.1182 11.3506 17.8838 11.1162C17.6494 10.8818 17.3315 10.75 17 10.75H13.75V6C13.75 5.66848 13.6182 5.35063 13.3838 5.11621C13.1494 4.88179 12.8315 4.75 12.5 4.75Z" fill="black" stroke="black"/>
</svg>
