<svg width="24" height="24" viewBox="0 0 24 24" fill="none" xmlns="http://www.w3.org/2000/svg">
<path fill-rule="evenodd" clip-rule="evenodd" d="M5.47007 5.47015C5.6107 5.3297 5.80132 5.25081 6.00007 5.25081C6.19882 5.25081 6.38945 5.3297 6.53007 5.47015L12.0001 10.9402L17.4701 5.47015C17.5387 5.39647 17.6215 5.33736 17.7135 5.29637C17.8055 5.25538 17.9048 5.23334 18.0056 5.23156C18.1063 5.22979 18.2063 5.24831 18.2997 5.28603C18.3931 5.32375 18.4779 5.3799 18.5491 5.45112C18.6203 5.52233 18.6765 5.60717 18.7142 5.70056C18.7519 5.79394 18.7704 5.89397 18.7687 5.99468C18.7669 6.09538 18.7448 6.19469 18.7039 6.28669C18.6629 6.37869 18.6038 6.46149 18.5301 6.53015L13.0601 12.0002L18.5301 17.4702C18.6038 17.5388 18.6629 17.6216 18.7039 17.7136C18.7448 17.8056 18.7669 17.9049 18.7687 18.0056C18.7704 18.1063 18.7519 18.2064 18.7142 18.2998C18.6765 18.3931 18.6203 18.478 18.5491 18.5492C18.4779 18.6204 18.3931 18.6766 18.2997 18.7143C18.2063 18.752 18.1063 18.7705 18.0056 18.7687C17.9048 18.767 17.8055 18.7449 17.7135 18.7039C17.6215 18.6629 17.5387 18.6038 17.4701 18.5302L12.0001 13.0602L6.53007 18.5302C6.3879 18.6626 6.19985 18.7348 6.00555 18.7313C5.81125 18.7279 5.62586 18.6492 5.48845 18.5118C5.35104 18.3744 5.27233 18.189 5.2689 17.9947C5.26547 17.8004 5.33759 17.6123 5.47007 17.4702L10.9401 12.0002L5.47007 6.53015C5.32962 6.38953 5.25073 6.1989 5.25073 6.00015C5.25073 5.8014 5.32962 5.61078 5.47007 5.47015Z" fill="#3C3C43" fill-opacity="0.6"/>
</svg>
