<svg width="16" height="16" viewBox="0 0 16 16" fill="none" xmlns="http://www.w3.org/2000/svg">
<path d="M2.35331 1.64665C2.25853 1.55833 2.13316 1.51024 2.00363 1.51253C1.8741 1.51481 1.75051 1.56729 1.6589 1.6589C1.56729 1.75051 1.51481 1.8741 1.51253 2.00363C1.51024 2.13316 1.55833 2.25853 1.64665 2.35331L13.6466 14.3533C13.6924 14.4024 13.7476 14.4418 13.809 14.4692C13.8703 14.4965 13.9365 14.5112 14.0036 14.5124C14.0708 14.5136 14.1375 14.5012 14.1997 14.4761C14.262 14.4509 14.3185 14.4135 14.366 14.366C14.4135 14.3185 14.4509 14.262 14.4761 14.1997C14.5012 14.1375 14.5136 14.0708 14.5124 14.0036C14.5112 13.9365 14.4965 13.8703 14.4692 13.809C14.4418 13.7476 14.4024 13.6924 14.3533 13.6466L2.35331 1.64665ZM15.1173 8.36865C14.7579 9.44697 14.1582 10.4295 13.3633 11.242L11.2973 9.17598C11.5202 8.55193 11.5614 7.87742 11.416 7.2309C11.2706 6.58438 10.9447 5.99241 10.4761 5.52384C10.0075 5.05526 9.41558 4.72934 8.76906 4.58397C8.12254 4.4386 7.44803 4.47975 6.82398 4.70265L5.17265 3.05131C6.07066 2.68595 7.03115 2.4987 8.00065 2.49998C11.314 2.49998 14.124 4.64865 15.1173 7.62665C15.1973 7.86798 15.1973 8.12798 15.1173 8.36865Z" fill="#3C3C43" fill-opacity="0.3"/>
<path d="M10.5 8.00004C10.5 8.12004 10.4914 8.23804 10.4754 8.35337L7.64603 5.5247C8.00068 5.47397 8.36209 5.50006 8.70578 5.6012C9.04947 5.70234 9.36741 5.87616 9.63806 6.1109C9.9087 6.34564 10.1257 6.63581 10.2745 6.96174C10.4232 7.28768 10.5001 7.64177 10.5 8.00004ZM8.35336 10.4754L5.52469 7.64604C5.46973 8.03035 5.50503 8.42219 5.62779 8.79049C5.75055 9.1588 5.9574 9.49346 6.23195 9.76794C6.5065 10.0424 6.84121 10.2492 7.20954 10.3719C7.57788 10.4945 7.96972 10.5298 8.35403 10.4747L8.35336 10.4754Z" fill="#3C3C43" fill-opacity="0.3"/>
<path d="M4.49997 7.99999C4.49997 7.58732 4.5713 7.19132 4.70263 6.82399L2.63597 4.75732C1.84137 5.56989 1.24182 6.55241 0.882632 7.63066C0.802632 7.87199 0.802632 8.13199 0.882632 8.37332C1.8753 11.3513 4.6853 13.5 7.9993 13.5C8.9993 13.5 9.95463 13.304 10.8273 12.9487L9.17597 11.2973C8.64773 11.4858 8.08195 11.5445 7.52627 11.4686C6.97059 11.3927 6.44129 11.1844 5.98295 10.8612C5.52461 10.538 5.15065 10.1093 4.89256 9.61141C4.63448 9.11349 4.49983 8.56083 4.49997 7.99999Z" fill="#3C3C43" fill-opacity="0.3"/>
</svg>
