<svg width="38" height="38" viewBox="0 0 38 38" fill="none" xmlns="http://www.w3.org/2000/svg">
<rect width="38" height="38" rx="19" fill="url(#paint0_linear_4465_1944)"/>
<path fill-rule="evenodd" clip-rule="evenodd" d="M19 7.91699C12.8785 7.91699 7.91663 12.8789 7.91663 19.0003C7.91663 25.1217 12.8785 30.0837 19 30.0837C25.1214 30.0837 30.0833 25.1217 30.0833 19.0003C30.0833 12.8789 25.1214 7.91699 19 7.91699ZM18.3975 23.8656C18.5573 24.0253 18.774 24.115 19 24.115C19.2259 24.115 19.4426 24.0253 19.6024 23.8656L23.0127 20.4554C23.0965 20.3773 23.1636 20.2832 23.2102 20.1786C23.2568 20.074 23.2819 19.9611 23.2839 19.8467C23.2859 19.7322 23.2649 19.6185 23.222 19.5123C23.1791 19.4062 23.1153 19.3097 23.0343 19.2288C22.9534 19.1478 22.8569 19.084 22.7508 19.0411C22.6446 18.9982 22.5309 18.9772 22.4164 18.9792C22.302 18.9812 22.1891 19.0063 22.0845 19.0529C21.9799 19.0995 21.8858 19.1666 21.8077 19.2504L19.8525 21.2056V14.7375C19.8525 14.5114 19.7627 14.2945 19.6028 14.1347C19.4429 13.9748 19.2261 13.8849 19 13.8849C18.7738 13.8849 18.557 13.9748 18.3971 14.1347C18.2372 14.2945 18.1474 14.5114 18.1474 14.7375V21.2056L16.1922 19.2504C16.0306 19.0998 15.8168 19.0178 15.5959 19.0217C15.3751 19.0256 15.1643 19.1151 15.0081 19.2713C14.8519 19.4275 14.7624 19.6382 14.7585 19.8591C14.7546 20.08 14.8366 20.2938 14.9872 20.4554L18.3975 23.8656Z" fill="#161616"/>
<defs>
<linearGradient id="paint0_linear_4465_1944" x1="0" y1="38" x2="38" y2="0" gradientUnits="userSpaceOnUse">
<stop stop-color="#B1E30B"/>
<stop offset="1" stop-color="#F7FFC4"/>
</linearGradient>
</defs>
</svg>
