<svg width="18" height="18" viewBox="0 0 18 18" fill="none" xmlns="http://www.w3.org/2000/svg">
<path fill-rule="evenodd" clip-rule="evenodd" d="M1.6875 9C1.6875 4.96125 4.96125 1.6875 9 1.6875C13.0387 1.6875 16.3125 4.96125 16.3125 9C16.3125 13.0387 13.0387 16.3125 9 16.3125C4.96125 16.3125 1.6875 13.0387 1.6875 9ZM9 6.1875C9.14918 6.1875 9.29226 6.24676 9.39775 6.35225C9.50324 6.45774 9.5625 6.60082 9.5625 6.75V9.5625C9.5625 9.71168 9.50324 9.85476 9.39775 9.96025C9.29226 10.0657 9.14918 10.125 9 10.125C8.85082 10.125 8.70774 10.0657 8.60225 9.96025C8.49676 9.85476 8.4375 9.71168 8.4375 9.5625V6.75C8.4375 6.60082 8.49676 6.45774 8.60225 6.35225C8.70774 6.24676 8.85082 6.1875 9 6.1875ZM9 12.375C9.14918 12.375 9.29226 12.3157 9.39775 12.2102C9.50324 12.1048 9.5625 11.9617 9.5625 11.8125C9.5625 11.6633 9.50324 11.5202 9.39775 11.4148C9.29226 11.3093 9.14918 11.25 9 11.25C8.85082 11.25 8.70774 11.3093 8.60225 11.4148C8.49676 11.5202 8.4375 11.6633 8.4375 11.8125C8.4375 11.9617 8.49676 12.1048 8.60225 12.2102C8.70774 12.3157 8.85082 12.375 9 12.375Z" fill="#FF8A00"/>
</svg>
