<svg width="16" height="16" viewBox="0 0 16 16" fill="none" xmlns="http://www.w3.org/2000/svg">
<path d="M8 10C8.53043 10 9.03914 9.78929 9.41421 9.41421C9.78929 9.03914 10 8.53043 10 8C10 7.46957 9.78929 6.96086 9.41421 6.58579C9.03914 6.21071 8.53043 6 8 6C7.46957 6 6.96086 6.21071 6.58579 6.58579C6.21071 6.96086 6 7.46957 6 8C6 8.53043 6.21071 9.03914 6.58579 9.41421C6.96086 9.78929 7.46957 10 8 10Z" fill="#3C3C43" fill-opacity="0.3"/>
<path fill-rule="evenodd" clip-rule="evenodd" d="M0.882091 7.63133C1.87409 4.65067 4.68542 2.5 8.00076 2.5C11.3141 2.5 14.1241 4.64867 15.1174 7.62667C15.1974 7.868 15.1974 8.128 15.1174 8.36867C14.1261 11.3493 11.3141 13.5 7.99942 13.5C4.68609 13.5 1.87542 11.3513 0.882758 8.37333C0.80259 8.1325 0.80259 7.87217 0.882758 7.63133H0.882091ZM11.5001 8C11.5001 8.92826 11.1313 9.8185 10.475 10.4749C9.81859 11.1313 8.92835 11.5 8.00009 11.5C7.07183 11.5 6.18159 11.1313 5.52522 10.4749C4.86884 9.8185 4.50009 8.92826 4.50009 8C4.50009 7.07174 4.86884 6.1815 5.52522 5.52513C6.18159 4.86875 7.07183 4.5 8.00009 4.5C8.92835 4.5 9.81859 4.86875 10.475 5.52513C11.1313 6.1815 11.5001 7.07174 11.5001 8Z" fill="#3C3C43" fill-opacity="0.3"/>
</svg>
