<svg width="25" height="24" viewBox="0 0 25 24" fill="none" xmlns="http://www.w3.org/2000/svg">
<path d="M11.5696 3.15133C11.8296 2.93114 12.1593 2.8103 12.5 2.8103C12.8407 2.8103 13.1704 2.93114 13.4304 3.15133L20.6245 9.25475C20.7838 9.38981 20.9118 9.55792 20.9996 9.74741C21.0873 9.93691 21.1328 10.1432 21.1329 10.3521V19.3715C21.1329 19.7531 20.9813 20.1191 20.7114 20.3889C20.4416 20.6587 20.0756 20.8103 19.694 20.8103H14.1786C13.9878 20.8103 13.8048 20.7345 13.6699 20.5996C13.535 20.4647 13.4592 20.2817 13.4592 20.0909V14.0959H11.5408V20.0909C11.5408 20.2817 11.465 20.4647 11.3301 20.5996C11.1952 20.7345 11.0122 20.8103 10.8214 20.8103H5.30597C4.92437 20.8103 4.5584 20.6587 4.28857 20.3889C4.01875 20.1191 3.86716 19.7531 3.86716 19.3715V10.3521C3.86716 9.93004 4.05324 9.52813 4.37554 9.25475L11.5696 3.15133ZM12.5 4.24866L5.30597 10.3521V19.3715H10.102V13.3765C10.102 13.1857 10.1778 13.0027 10.3127 12.8678C10.4476 12.7329 10.6306 12.6571 10.8214 12.6571H14.1786C14.3694 12.6571 14.5524 12.7329 14.6873 12.8678C14.8222 13.0027 14.898 13.1857 14.898 13.3765V19.3715H19.694V10.3521L12.5 4.24866Z" fill="#3C3C43" fill-opacity="0.6"/>
</svg>
