<svg width="25" height="24" viewBox="0 0 25 24" fill="none" xmlns="http://www.w3.org/2000/svg">
<path d="M13.4304 3.1504C13.1705 2.93004 12.8408 2.80908 12.5 2.80908C12.1592 2.80908 11.8295 2.93004 11.5696 3.1504L4.37565 9.25373C4.21635 9.38877 4.08836 9.55688 4.00058 9.74638C3.91279 9.93587 3.8673 10.1422 3.86728 10.351V19.3703C3.86728 19.7519 4.01886 20.1178 4.28869 20.3877C4.55851 20.6575 4.92447 20.8091 5.30606 20.8091H9.86221C10.053 20.8091 10.236 20.7333 10.3709 20.5984C10.5058 20.4635 10.5816 20.2805 10.5816 20.0897V14.0948H14.4184V20.0897C14.4184 20.4868 14.7407 20.8091 15.1378 20.8091H19.6939C20.0755 20.8091 20.4415 20.6575 20.7113 20.3877C20.9811 20.1178 21.1327 19.7519 21.1327 19.3703V10.351C21.1327 10.1422 21.0872 9.93587 20.9994 9.74638C20.9116 9.55688 20.7836 9.38877 20.6243 9.25373L13.4304 3.1504Z" fill="black"/>
</svg>
