<svg width="19" height="22" viewBox="0 0 19 22" fill="none" xmlns="http://www.w3.org/2000/svg">
<g clip-path="url(#clip0_4167_5)">
<path d="M9.42316 0.5C8.69719 0.5 8.11066 1.08652 8.11066 1.8125V2.6C5.11652 3.20703 2.86067 5.85664 2.86067 9.03125V9.80234C2.86067 11.7301 2.15109 13.5922 0.871407 15.0359L0.567892 15.3764C0.22336 15.7619 0.141329 16.3156 0.350509 16.7873C0.559689 17.259 1.03137 17.5625 1.54817 17.5625H17.2982C17.815 17.5625 18.2825 17.259 18.4958 16.7873C18.7091 16.3156 18.623 15.7619 18.2784 15.3764L17.9749 15.0359C16.6952 13.5922 15.9857 11.7342 15.9857 9.80234V9.03125C15.9857 5.85664 13.7298 3.20703 10.7357 2.6V1.8125C10.7357 1.08652 10.1491 0.5 9.42316 0.5ZM11.2812 20.733C11.7734 20.2408 12.0482 19.5723 12.0482 18.875H9.42316H6.79816C6.79816 19.5723 7.07297 20.2408 7.56516 20.733C8.05734 21.2252 8.7259 21.5 9.42316 21.5C10.1204 21.5 10.789 21.2252 11.2812 20.733Z" fill="black"/>
</g>
<defs>
<clipPath id="clip0_4167_5">
<rect width="18.375" height="21" fill="white" transform="translate(0.235596 0.5)"/>
</clipPath>
</defs>
</svg>
