<svg width="25" height="24" viewBox="0 0 25 24" fill="none" xmlns="http://www.w3.org/2000/svg">
<path fill-rule="evenodd" clip-rule="evenodd" d="M12.1667 2.25C6.78169 2.25 2.41669 6.615 2.41669 12C2.41669 17.385 6.78169 21.75 12.1667 21.75C17.5517 21.75 21.9167 17.385 21.9167 12C21.9167 6.615 17.5517 2.25 12.1667 2.25ZM12.9167 9C12.9167 8.80109 12.8377 8.61032 12.697 8.46967C12.5564 8.32902 12.3656 8.25 12.1667 8.25C11.9678 8.25 11.777 8.32902 11.6364 8.46967C11.4957 8.61032 11.4167 8.80109 11.4167 9V11.25H9.16669C8.96777 11.25 8.77701 11.329 8.63636 11.4697C8.49571 11.6103 8.41669 11.8011 8.41669 12C8.41669 12.1989 8.49571 12.3897 8.63636 12.5303C8.77701 12.671 8.96777 12.75 9.16669 12.75H11.4167V15C11.4167 15.1989 11.4957 15.3897 11.6364 15.5303C11.777 15.671 11.9678 15.75 12.1667 15.75C12.3656 15.75 12.5564 15.671 12.697 15.5303C12.8377 15.3897 12.9167 15.1989 12.9167 15V12.75H15.1667C15.3656 12.75 15.5564 12.671 15.697 12.5303C15.8377 12.3897 15.9167 12.1989 15.9167 12C15.9167 11.8011 15.8377 11.6103 15.697 11.4697C15.5564 11.329 15.3656 11.25 15.1667 11.25H12.9167V9Z" fill="black"/>
</svg>
