<svg width="25" height="25" viewBox="0 0 25 25" fill="none" xmlns="http://www.w3.org/2000/svg">
<path fill-rule="evenodd" clip-rule="evenodd" d="M3.5 5.375C3.5 4.339 4.34 3.5 5.375 3.5H9.875C10.911 3.5 11.75 4.34 11.75 5.375V9.875C11.75 10.911 10.91 11.75 9.875 11.75H5.375C4.87772 11.75 4.40081 11.5525 4.04917 11.2008C3.69754 10.8492 3.5 10.3723 3.5 9.875V5.375ZM5.375 5C5.27554 5 5.18016 5.03951 5.10984 5.10984C5.03951 5.18016 5 5.27554 5 5.375V9.875C5 10.082 5.168 10.25 5.375 10.25H9.875C9.97446 10.25 10.0698 10.2105 10.1402 10.1402C10.2105 10.0698 10.25 9.97446 10.25 9.875V5.375C10.25 5.27554 10.2105 5.18016 10.1402 5.10984C10.0698 5.03951 9.97446 5 9.875 5H5.375ZM13.25 5.375C13.25 4.339 14.09 3.5 15.125 3.5H19.625C20.66 3.5 21.5 4.34 21.5 5.375V9.875C21.5 10.911 20.66 11.75 19.625 11.75H15.125C14.6277 11.75 14.1508 11.5525 13.7992 11.2008C13.4475 10.8492 13.25 10.3723 13.25 9.875V5.375ZM15.125 5C15.0255 5 14.9302 5.03951 14.8598 5.10984C14.7895 5.18016 14.75 5.27554 14.75 5.375V9.875C14.75 10.082 14.918 10.25 15.125 10.25H19.625C19.7245 10.25 19.8198 10.2105 19.8902 10.1402C19.9605 10.0698 20 9.97446 20 9.875V5.375C20 5.27554 19.9605 5.18016 19.8902 5.10984C19.8198 5.03951 19.7245 5 19.625 5H15.125ZM6.5 7.25C6.5 7.05109 6.57902 6.86032 6.71967 6.71967C6.86032 6.57902 7.05109 6.5 7.25 6.5H8C8.19891 6.5 8.38968 6.57902 8.53033 6.71967C8.67098 6.86032 8.75 7.05109 8.75 7.25V8C8.75 8.19891 8.67098 8.38968 8.53033 8.53033C8.38968 8.67098 8.19891 8.75 8 8.75H7.25C7.05109 8.75 6.86032 8.67098 6.71967 8.53033C6.57902 8.38968 6.5 8.19891 6.5 8V7.25ZM16.25 7.25C16.25 7.05109 16.329 6.86032 16.4697 6.71967C16.6103 6.57902 16.8011 6.5 17 6.5H17.75C17.9489 6.5 18.1397 6.57902 18.2803 6.71967C18.421 6.86032 18.5 7.05109 18.5 7.25V8C18.5 8.19891 18.421 8.38968 18.2803 8.53033C18.1397 8.67098 17.9489 8.75 17.75 8.75H17C16.8011 8.75 16.6103 8.67098 16.4697 8.53033C16.329 8.38968 16.25 8.19891 16.25 8V7.25ZM3.5 15.125C3.5 14.089 4.34 13.25 5.375 13.25H9.875C10.911 13.25 11.75 14.09 11.75 15.125V19.625C11.75 20.66 10.91 21.5 9.875 21.5H5.375C4.87772 21.5 4.40081 21.3025 4.04917 20.9508C3.69754 20.5992 3.5 20.1223 3.5 19.625V15.125ZM5.375 14.75C5.27554 14.75 5.18016 14.7895 5.10984 14.8598C5.03951 14.9302 5 15.0255 5 15.125V19.625C5 19.832 5.168 20 5.375 20H9.875C9.97446 20 10.0698 19.9605 10.1402 19.8902C10.2105 19.8198 10.25 19.7245 10.25 19.625V15.125C10.25 15.0255 10.2105 14.9302 10.1402 14.8598C10.0698 14.7895 9.97446 14.75 9.875 14.75H5.375ZM13.25 14C13.25 13.8011 13.329 13.6103 13.4697 13.4697C13.6103 13.329 13.8011 13.25 14 13.25H14.75C14.9489 13.25 15.1397 13.329 15.2803 13.4697C15.421 13.6103 15.5 13.8011 15.5 14V14.75C15.5 14.9489 15.421 15.1397 15.2803 15.2803C15.1397 15.421 14.9489 15.5 14.75 15.5H14C13.8011 15.5 13.6103 15.421 13.4697 15.2803C13.329 15.1397 13.25 14.9489 13.25 14.75V14ZM19.25 14C19.25 13.8011 19.329 13.6103 19.4697 13.4697C19.6103 13.329 19.8011 13.25 20 13.25H20.75C20.9489 13.25 21.1397 13.329 21.2803 13.4697C21.421 13.6103 21.5 13.8011 21.5 14V14.75C21.5 14.9489 21.421 15.1397 21.2803 15.2803C21.1397 15.421 20.9489 15.5 20.75 15.5H20C19.8011 15.5 19.6103 15.421 19.4697 15.2803C19.329 15.1397 19.25 14.9489 19.25 14.75V14ZM6.5 17C6.5 16.8011 6.57902 16.6103 6.71967 16.4697C6.86032 16.329 7.05109 16.25 7.25 16.25H8C8.19891 16.25 8.38968 16.329 8.53033 16.4697C8.67098 16.6103 8.75 16.8011 8.75 17V17.75C8.75 17.9489 8.67098 18.1397 8.53033 18.2803C8.38968 18.421 8.19891 18.5 8 18.5H7.25C7.05109 18.5 6.86032 18.421 6.71967 18.2803C6.57902 18.1397 6.5 17.9489 6.5 17.75V17ZM16.25 17C16.25 16.8011 16.329 16.6103 16.4697 16.4697C16.6103 16.329 16.8011 16.25 17 16.25H17.75C17.9489 16.25 18.1397 16.329 18.2803 16.4697C18.421 16.6103 18.5 16.8011 18.5 17V17.75C18.5 17.9489 18.421 18.1397 18.2803 18.2803C18.1397 18.421 17.9489 18.5 17.75 18.5H17C16.8011 18.5 16.6103 18.421 16.4697 18.2803C16.329 18.1397 16.25 17.9489 16.25 17.75V17ZM13.25 20C13.25 19.8011 13.329 19.6103 13.4697 19.4697C13.6103 19.329 13.8011 19.25 14 19.25H14.75C14.9489 19.25 15.1397 19.329 15.2803 19.4697C15.421 19.6103 15.5 19.8011 15.5 20V20.75C15.5 20.9489 15.421 21.1397 15.2803 21.2803C15.1397 21.421 14.9489 21.5 14.75 21.5H14C13.8011 21.5 13.6103 21.421 13.4697 21.2803C13.329 21.1397 13.25 20.9489 13.25 20.75V20ZM19.25 20C19.25 19.8011 19.329 19.6103 19.4697 19.4697C19.6103 19.329 19.8011 19.25 20 19.25H20.75C20.9489 19.25 21.1397 19.329 21.2803 19.4697C21.421 19.6103 21.5 19.8011 21.5 20V20.75C21.5 20.9489 21.421 21.1397 21.2803 21.2803C21.1397 21.421 20.9489 21.5 20.75 21.5H20C19.8011 21.5 19.6103 21.421 19.4697 21.2803C19.329 21.1397 19.25 20.9489 19.25 20.75V20Z" fill="#161616"/>
</svg>
