<svg width="75" height="75" viewBox="0 0 75 75" fill="none" xmlns="http://www.w3.org/2000/svg">
<rect width="75" height="75" rx="37.5" fill="url(#paint0_linear_4083_5713)"/>
<path fill-rule="evenodd" clip-rule="evenodd" d="M37.5 16.125C25.4183 16.125 15.625 25.9183 15.625 38C15.625 50.0817 25.4183 59.875 37.5 59.875C49.5817 59.875 59.375 50.0817 59.375 38C59.375 25.9183 49.5817 16.125 37.5 16.125ZM36.3109 47.6026C36.6264 47.9177 37.0541 48.0947 37.5 48.0947C37.9459 48.0947 38.3736 47.9177 38.6891 47.6026L45.4199 40.8718C45.5852 40.7177 45.7178 40.532 45.8098 40.3256C45.9017 40.1192 45.9512 39.8963 45.9552 39.6704C45.9592 39.4445 45.9176 39.22 45.833 39.0105C45.7483 38.801 45.6224 38.6107 45.4626 38.4509C45.3028 38.2911 45.1125 38.1651 44.9029 38.0805C44.6934 37.9959 44.469 37.9543 44.2431 37.9583C44.0171 37.9623 43.7943 38.0117 43.5879 38.1037C43.3815 38.1957 43.1957 38.3283 43.0417 38.4936L39.1827 42.3526V29.5865C39.1827 29.1403 39.0054 28.7123 38.6898 28.3967C38.3743 28.0811 37.9463 27.9038 37.5 27.9038C37.0537 27.9038 36.6257 28.0811 36.3102 28.3967C35.9946 28.7123 35.8173 29.1403 35.8173 29.5865V42.3526L31.9583 38.4936C31.6393 38.1964 31.2175 38.0345 30.7815 38.0422C30.3456 38.0499 29.9297 38.2265 29.6214 38.5348C29.3131 38.8431 29.1365 39.2591 29.1288 39.695C29.1211 40.1309 29.2829 40.5528 29.5801 40.8718L36.3109 47.6026Z" fill="#161616"/>
<defs>
<linearGradient id="paint0_linear_4083_5713" x1="0" y1="75" x2="75" y2="0" gradientUnits="userSpaceOnUse">
<stop stop-color="#B1E30B"/>
<stop offset="1" stop-color="#F7FFC4"/>
</linearGradient>
</defs>
</svg>
