<svg width="25" height="24" viewBox="0 0 25 24" fill="none" xmlns="http://www.w3.org/2000/svg">
<path d="M21.955 2.22105C22.3494 2.49443 22.5564 2.96699 22.4822 3.43955L19.9827 19.6862C19.9242 20.065 19.6937 20.397 19.3579 20.5844C19.022 20.7719 18.6197 20.7953 18.2644 20.6469L13.5934 18.7059L10.9182 21.5998C10.5706 21.9787 10.0239 22.1036 9.5435 21.9162C9.06313 21.7287 8.7507 21.264 8.7507 20.7485V17.4835C8.7507 17.3273 8.80928 17.1789 8.91473 17.0617L15.4602 9.92258C15.6868 9.67654 15.6789 9.29771 15.4446 9.06338C15.2103 8.82906 14.8315 8.81344 14.5854 9.03605L6.64176 16.0932L3.19326 14.367C2.77928 14.16 2.51371 13.746 2.50199 13.2852C2.49028 12.8243 2.73241 12.3947 3.13077 12.1643L20.6271 2.16638C21.045 1.92814 21.5605 1.95158 21.955 2.22105Z" fill="black"/>
</svg>
