<svg width="38" height="38" viewBox="0 0 38 38" fill="none" xmlns="http://www.w3.org/2000/svg">
<rect width="38" height="38" rx="19" fill="url(#paint0_linear_4422_1791)"/>
<path fill-rule="evenodd" clip-rule="evenodd" d="M9.50012 11.4792C9.50012 10.3856 10.3868 9.5 11.4793 9.5H16.2293C17.3228 9.5 18.2085 10.3867 18.2085 11.4792V16.2292C18.2085 17.3227 17.3218 18.2083 16.2293 18.2083H11.4793C10.9544 18.2083 10.451 17.9998 10.0798 17.6286C9.70864 17.2575 9.50012 16.7541 9.50012 16.2292V11.4792ZM11.4793 11.0833C11.3743 11.0833 11.2736 11.125 11.1994 11.1993C11.1252 11.2735 11.0835 11.3742 11.0835 11.4792V16.2292C11.0835 16.4477 11.2608 16.625 11.4793 16.625H16.2293C16.3343 16.625 16.435 16.5833 16.5092 16.5091C16.5834 16.4348 16.6251 16.3341 16.6251 16.2292V11.4792C16.6251 11.3742 16.5834 11.2735 16.5092 11.1993C16.435 11.125 16.3343 11.0833 16.2293 11.0833H11.4793ZM19.7918 11.4792C19.7918 10.3856 20.6785 9.5 21.771 9.5H26.521C27.6135 9.5 28.5001 10.3867 28.5001 11.4792V16.2292C28.5001 17.3227 27.6135 18.2083 26.521 18.2083H21.771C21.246 18.2083 20.7426 17.9998 20.3715 17.6286C20.0003 17.2575 19.7918 16.7541 19.7918 16.2292V11.4792ZM21.771 11.0833C21.666 11.0833 21.5653 11.125 21.4911 11.1993C21.4168 11.2735 21.3751 11.3742 21.3751 11.4792V16.2292C21.3751 16.4477 21.5525 16.625 21.771 16.625H26.521C26.6259 16.625 26.7266 16.5833 26.8009 16.5091C26.8751 16.4348 26.9168 16.3341 26.9168 16.2292V11.4792C26.9168 11.3742 26.8751 11.2735 26.8009 11.1993C26.7266 11.125 26.6259 11.0833 26.521 11.0833H21.771ZM12.6668 13.4583C12.6668 13.2484 12.7502 13.047 12.8987 12.8985C13.0471 12.7501 13.2485 12.6667 13.4585 12.6667H14.2501C14.4601 12.6667 14.6614 12.7501 14.8099 12.8985C14.9584 13.047 15.0418 13.2484 15.0418 13.4583V14.25C15.0418 14.46 14.9584 14.6613 14.8099 14.8098C14.6614 14.9583 14.4601 15.0417 14.2501 15.0417H13.4585C13.2485 15.0417 13.0471 14.9583 12.8987 14.8098C12.7502 14.6613 12.6668 14.46 12.6668 14.25V13.4583ZM22.9585 13.4583C22.9585 13.2484 23.0419 13.047 23.1903 12.8985C23.3388 12.7501 23.5402 12.6667 23.7501 12.6667H24.5418C24.7518 12.6667 24.9531 12.7501 25.1016 12.8985C25.25 13.047 25.3335 13.2484 25.3335 13.4583V14.25C25.3335 14.46 25.25 14.6613 25.1016 14.8098C24.9531 14.9583 24.7518 15.0417 24.5418 15.0417H23.7501C23.5402 15.0417 23.3388 14.9583 23.1903 14.8098C23.0419 14.6613 22.9585 14.46 22.9585 14.25V13.4583ZM9.50012 21.7708C9.50012 20.6773 10.3868 19.7917 11.4793 19.7917H16.2293C17.3228 19.7917 18.2085 20.6783 18.2085 21.7708V26.5208C18.2085 27.6133 17.3218 28.5 16.2293 28.5H11.4793C10.9544 28.5 10.451 28.2915 10.0798 27.9203C9.70864 27.5492 9.50012 27.0457 9.50012 26.5208V21.7708ZM11.4793 21.375C11.3743 21.375 11.2736 21.4167 11.1994 21.4909C11.1252 21.5652 11.0835 21.6659 11.0835 21.7708V26.5208C11.0835 26.7393 11.2608 26.9167 11.4793 26.9167H16.2293C16.3343 26.9167 16.435 26.875 16.5092 26.8007C16.5834 26.7265 16.6251 26.6258 16.6251 26.5208V21.7708C16.6251 21.6659 16.5834 21.5652 16.5092 21.4909C16.435 21.4167 16.3343 21.375 16.2293 21.375H11.4793ZM19.7918 20.5833C19.7918 20.3734 19.8752 20.172 20.0237 20.0235C20.1721 19.8751 20.3735 19.7917 20.5835 19.7917H21.3751C21.5851 19.7917 21.7864 19.8751 21.9349 20.0235C22.0834 20.172 22.1668 20.3734 22.1668 20.5833V21.375C22.1668 21.585 22.0834 21.7863 21.9349 21.9348C21.7864 22.0833 21.5851 22.1667 21.3751 22.1667H20.5835C20.3735 22.1667 20.1721 22.0833 20.0237 21.9348C19.8752 21.7863 19.7918 21.585 19.7918 21.375V20.5833ZM26.1251 20.5833C26.1251 20.3734 26.2085 20.172 26.357 20.0235C26.5055 19.8751 26.7068 19.7917 26.9168 19.7917H27.7085C27.9184 19.7917 28.1198 19.8751 28.2682 20.0235C28.4167 20.172 28.5001 20.3734 28.5001 20.5833V21.375C28.5001 21.585 28.4167 21.7863 28.2682 21.9348C28.1198 22.0833 27.9184 22.1667 27.7085 22.1667H26.9168C26.7068 22.1667 26.5055 22.0833 26.357 21.9348C26.2085 21.7863 26.1251 21.585 26.1251 21.375V20.5833ZM12.6668 23.75C12.6668 23.54 12.7502 23.3387 12.8987 23.1902C13.0471 23.0417 13.2485 22.9583 13.4585 22.9583H14.2501C14.4601 22.9583 14.6614 23.0417 14.8099 23.1902C14.9584 23.3387 15.0418 23.54 15.0418 23.75V24.5417C15.0418 24.7516 14.9584 24.953 14.8099 25.1015C14.6614 25.2499 14.4601 25.3333 14.2501 25.3333H13.4585C13.2485 25.3333 13.0471 25.2499 12.8987 25.1015C12.7502 24.953 12.6668 24.7516 12.6668 24.5417V23.75ZM22.9585 23.75C22.9585 23.54 23.0419 23.3387 23.1903 23.1902C23.3388 23.0417 23.5402 22.9583 23.7501 22.9583H24.5418C24.7518 22.9583 24.9531 23.0417 25.1016 23.1902C25.25 23.3387 25.3335 23.54 25.3335 23.75V24.5417C25.3335 24.7516 25.25 24.953 25.1016 25.1015C24.9531 25.2499 24.7518 25.3333 24.5418 25.3333H23.7501C23.5402 25.3333 23.3388 25.2499 23.1903 25.1015C23.0419 24.953 22.9585 24.7516 22.9585 24.5417V23.75ZM19.7918 26.9167C19.7918 26.7067 19.8752 26.5053 20.0237 26.3569C20.1721 26.2084 20.3735 26.125 20.5835 26.125H21.3751C21.5851 26.125 21.7864 26.2084 21.9349 26.3569C22.0834 26.5053 22.1668 26.7067 22.1668 26.9167V27.7083C22.1668 27.9183 22.0834 28.1197 21.9349 28.2681C21.7864 28.4166 21.5851 28.5 21.3751 28.5H20.5835C20.3735 28.5 20.1721 28.4166 20.0237 28.2681C19.8752 28.1197 19.7918 27.9183 19.7918 27.7083V26.9167ZM26.1251 26.9167C26.1251 26.7067 26.2085 26.5053 26.357 26.3569C26.5055 26.2084 26.7068 26.125 26.9168 26.125H27.7085C27.9184 26.125 28.1198 26.2084 28.2682 26.3569C28.4167 26.5053 28.5001 26.7067 28.5001 26.9167V27.7083C28.5001 27.9183 28.4167 28.1197 28.2682 28.2681C28.1198 28.4166 27.9184 28.5 27.7085 28.5H26.9168C26.7068 28.5 26.5055 28.4166 26.357 28.2681C26.2085 28.1197 26.1251 27.9183 26.1251 27.7083V26.9167Z" fill="#161616"/>
<defs>
<linearGradient id="paint0_linear_4422_1791" x1="0" y1="38" x2="38" y2="0" gradientUnits="userSpaceOnUse">
<stop stop-color="#B1E30B"/>
<stop offset="1" stop-color="#F7FFC4"/>
</linearGradient>
</defs>
</svg>
