<svg width="40" height="41" viewBox="0 0 40 41" fill="none" xmlns="http://www.w3.org/2000/svg">
<rect y="0.5" width="40" height="40" rx="20" fill="#E1FC56"/>
<path fill-rule="evenodd" clip-rule="evenodd" d="M12.24 17.3001C12.3122 17.3671 12.3969 17.4192 12.4893 17.4534C12.5816 17.4877 12.6798 17.5034 12.7783 17.4997C12.8767 17.4959 12.9734 17.4729 13.0629 17.4318C13.1525 17.3907 13.233 17.3323 13.3 17.2601L15.25 15.1601V23.7501C15.25 23.949 15.329 24.1398 15.4696 24.2804C15.6103 24.4211 15.8011 24.5001 16 24.5001C16.1989 24.5001 16.3897 24.4211 16.5303 24.2804C16.671 24.1398 16.75 23.949 16.75 23.7501V15.1601L18.7 17.2601C18.7669 17.3323 18.8475 17.3907 18.937 17.4318C19.0265 17.4729 19.1233 17.4959 19.2217 17.4996C19.3201 17.5033 19.4183 17.4876 19.5107 17.4534C19.603 17.4192 19.6877 17.3671 19.76 17.3001C19.8322 17.2331 19.8905 17.1526 19.9316 17.0631C19.9727 16.9735 19.9958 16.8768 19.9995 16.7784C20.0032 16.68 19.9875 16.5818 19.9533 16.4894C19.919 16.397 19.8669 16.3123 19.8 16.2401L16.55 12.7401C16.4798 12.6644 16.3947 12.604 16.3 12.5626C16.2054 12.5213 16.1032 12.5 16 12.5C15.8967 12.5 15.7946 12.5213 15.6999 12.5626C15.6053 12.604 15.5202 12.6644 15.45 12.7401L12.2 16.2401C12.133 16.3123 12.0809 16.397 12.0466 16.4894C12.0124 16.5818 11.9967 16.68 12.0004 16.7784C12.0041 16.8768 12.0272 16.9736 12.0683 17.0631C12.1094 17.1526 12.1677 17.2331 12.24 17.3001ZM20.24 23.7001C20.1677 23.7671 20.1094 23.8476 20.0683 23.9371C20.0272 24.0266 20.0041 24.1234 20.0004 24.2218C19.9967 24.3202 20.0124 24.4184 20.0466 24.5108C20.0809 24.6032 20.133 24.6879 20.2 24.7601L23.45 28.2601C23.5202 28.3358 23.6053 28.3962 23.6999 28.4376C23.7946 28.4789 23.8967 28.5002 24 28.5002C24.1032 28.5002 24.2054 28.4789 24.3 28.4376C24.3947 28.3962 24.4798 28.3358 24.55 28.2601L27.8 24.7601C27.9352 24.6142 28.007 24.4206 27.9995 24.2218C27.992 24.023 27.9058 23.8354 27.76 23.7001C27.6141 23.5648 27.4205 23.4931 27.2217 23.5006C27.0229 23.5081 26.8352 23.5942 26.7 23.7401L24.75 25.8401V17.2501C24.75 17.0512 24.671 16.8604 24.5303 16.7198C24.3896 16.5791 24.1989 16.5001 24 16.5001C23.8011 16.5001 23.6103 16.5791 23.4696 16.7198C23.329 16.8604 23.25 17.0512 23.25 17.2501V25.8401L21.3 23.7401C21.233 23.6679 21.1525 23.6095 21.0629 23.5684C20.9734 23.5273 20.8767 23.5043 20.7783 23.5005C20.6798 23.4968 20.5816 23.5125 20.4893 23.5468C20.3969 23.581 20.3122 23.6331 20.24 23.7001Z" fill="#161616"/>
</svg>
