<svg width="20" height="20" viewBox="0 0 20 20" fill="none" xmlns="http://www.w3.org/2000/svg">
<path d="M1.78959 9.84094C6.1624 7.9358 9.07831 6.6798 10.5372 6.07296C14.7029 4.34032 15.5685 4.03934 16.1326 4.0294C16.2567 4.02722 16.5342 4.05797 16.7139 4.2038C16.8656 4.32694 16.9074 4.49328 16.9274 4.61002C16.9474 4.72677 16.9722 4.99272 16.9525 5.20052C16.7267 7.57238 15.75 13.3283 15.2531 15.9848C15.0428 17.1089 14.6288 17.4857 14.228 17.5226C13.3569 17.6028 12.6954 16.9469 11.8517 16.3939C10.5316 15.5285 9.78573 14.9898 8.50423 14.1453C7.02327 13.1694 7.98332 12.6329 8.82731 11.7564C9.04823 11.5269 12.8862 8.03599 12.9605 7.71931C12.9697 7.6797 12.9784 7.53207 12.8906 7.45411C12.803 7.37615 12.6736 7.40281 12.5801 7.42402C12.4477 7.45407 10.3386 8.84802 6.25302 11.606C5.65438 12.017 5.11215 12.2174 4.62634 12.2069C4.09075 12.1953 3.06052 11.904 2.29465 11.6551C1.35527 11.3497 0.608673 11.1883 0.673685 10.6697C0.707547 10.3996 1.07951 10.1234 1.78959 9.84094Z" fill="#161616"/>
</svg>
