<svg width="55" height="54" viewBox="0 0 55 54" fill="none" xmlns="http://www.w3.org/2000/svg">
<g clip-path="url(#clip0_803_5473)">
<mask id="mask0_803_5473" style="mask-type:luminance" maskUnits="userSpaceOnUse" x="0" y="0" width="55" height="54">
<path d="M54.4511 0.0488281H0.548706V53.9513H54.4511V0.0488281Z" fill="white"/>
</mask>
<g mask="url(#mask0_803_5473)">
<path d="M27.4999 53.9513C42.3847 53.9513 54.4511 41.8848 54.4511 27C54.4511 12.1153 42.3847 0.0488281 27.4999 0.0488281C12.6152 0.0488281 0.548706 12.1153 0.548706 27C0.548706 41.8848 12.6152 53.9513 27.4999 53.9513Z" fill="#26A17B"/>
<path fill-rule="evenodd" clip-rule="evenodd" d="M30.7375 29.3298V29.3264C30.5521 29.3399 29.597 29.3972 27.4662 29.3972C25.765 29.3972 24.5674 29.3467 24.1462 29.3264V29.3315C17.5971 29.0434 12.7088 27.9031 12.7088 26.5386C12.7088 25.1759 17.5971 24.0356 24.1462 23.7425V28.1962C24.574 28.2265 25.8003 28.299 27.4948 28.299C29.528 28.299 30.5471 28.2147 30.7375 28.1979V23.7458C37.2732 24.0373 42.1496 25.1776 42.1496 26.5386C42.1496 27.9031 37.2732 29.0401 30.7375 29.3298ZM30.7375 23.2827V19.2973H39.8571V13.2197H15.0266V19.2973H24.1462V23.281C16.7346 23.6213 11.1608 25.0901 11.1608 26.8486C11.1608 28.6072 16.7346 30.0744 24.1462 30.4162V43.1878H30.7375V30.413C38.1373 30.0727 43.6976 28.6055 43.6976 26.8486C43.6976 25.0918 38.1373 23.6245 30.7375 23.2827Z" fill="white"/>
</g>
<path d="M53.7393 42.6022C53.7393 36.7274 48.9768 31.9648 43.102 31.9648C37.2271 31.9648 32.4646 36.7274 32.4646 42.6022V42.6048C32.4646 48.4796 37.2271 53.2421 43.102 53.2421C48.9768 53.2421 53.7393 48.4796 53.7393 42.6048V42.6022Z" fill="#FF060A"/>
<path d="M53.7393 42.6022C53.7393 36.7274 48.9768 31.9648 43.102 31.9648C37.2271 31.9648 32.4646 36.7274 32.4646 42.6022V42.6048C32.4646 48.4796 37.2271 53.2421 43.102 53.2421C48.9768 53.2421 53.7393 48.4796 53.7393 42.6048V42.6022Z" stroke="white" stroke-width="1.41849"/>
<path d="M50.6686 40.5423C49.9594 39.8873 48.9784 38.8873 48.1792 38.1781L48.1319 38.145C48.0532 38.0817 47.9646 38.0322 47.8695 37.9983C45.9428 37.639 36.9756 35.9628 36.8007 35.9841C36.7516 35.991 36.7048 36.0088 36.6635 36.0361L36.6185 36.0716C36.5632 36.1278 36.5212 36.1956 36.4957 36.2702L36.4838 36.301V36.4688V36.4947C37.4933 39.3058 41.4792 48.5141 42.2641 50.6749C42.3115 50.8214 42.4013 51.1005 42.5691 51.1146H42.6069C42.6967 51.1146 43.0797 50.6087 43.0797 50.6087C43.0797 50.6087 49.9263 42.3059 50.619 41.4217C50.7086 41.3128 50.7878 41.1956 50.8554 41.0718C50.8727 40.9749 50.8645 40.8752 50.8319 40.7824C50.7991 40.6896 50.7429 40.6068 50.6686 40.5423ZM44.8364 41.5091L47.7585 39.0859L49.4724 40.6651L44.8364 41.5091ZM43.7016 41.3508L38.6706 37.2277L46.8103 38.7289L43.7016 41.3508ZM44.1555 42.4311L49.3046 41.6013L43.4179 48.6937L44.1555 42.4311ZM37.9874 37.639L43.2807 42.131L42.5147 48.6985L37.9874 37.639Z" fill="white"/>
</g>
<defs>
<clipPath id="clip0_803_5473">
<rect width="53.9024" height="53.9024" fill="white" transform="translate(0.548706 0.0488281)"/>
</clipPath>
</defs>
</svg>
