<svg width="38" height="38" viewBox="0 0 38 38" fill="none" xmlns="http://www.w3.org/2000/svg">
<g clip-path="url(#clip0_4465_3600)">
<path d="M19 38C29.5179 38 38 29.5179 38 19C38 8.48214 29.5179 0 19 0C8.48214 0 0 8.48214 0 19C0 29.5179 8.48214 38 19 38Z" fill="#0098EA"/>
<path d="M25.5142 10.5857H12.4857C10.1107 10.5857 8.61782 13.1643 9.77139 15.2678L17.7785 29.1785C18.3214 30.0607 19.6107 30.0607 20.1535 29.1785L28.1607 15.2678C29.3821 13.1643 27.8892 10.5857 25.5142 10.5857ZM17.8464 24.9714L16.0821 21.5785L11.875 14.0464C11.6035 13.5714 11.9428 12.9607 12.5535 12.9607H17.8464V24.9714ZM26.125 14.0464L21.9178 21.5785L20.1535 24.9714V12.9607H25.4464C26.0571 12.9607 26.3964 13.5714 26.125 14.0464Z" fill="white"/>
</g>
<defs>
<clipPath id="clip0_4465_3600">
<rect width="38" height="38" fill="white"/>
</clipPath>
</defs>
</svg>
