<svg width="38" height="38" viewBox="0 0 38 38" fill="none" xmlns="http://www.w3.org/2000/svg">
<rect width="38" height="38" rx="19" fill="url(#paint0_linear_4465_1641)"/>
<path d="M26.1494 9.96874C26.5137 10.2212 26.7049 10.6577 26.6363 11.0942L24.3278 26.0997C24.2737 26.4496 24.0609 26.7562 23.7507 26.9294C23.4404 27.1025 23.0689 27.1241 22.7407 26.9871L18.4266 25.1943L15.9557 27.8672C15.6347 28.2171 15.1297 28.3325 14.686 28.1594C14.2423 27.9862 13.9538 27.557 13.9538 27.0809V24.0653C13.9538 23.921 14.0079 23.784 14.1053 23.6757L20.1508 17.082C20.36 16.8547 20.3528 16.5048 20.1363 16.2884C19.9199 16.072 19.57 16.0575 19.3428 16.2631L12.0059 22.7812L8.82084 21.1868C8.43849 20.9957 8.1932 20.6133 8.18238 20.1877C8.17156 19.762 8.3952 19.3653 8.76313 19.1524L24.923 9.91824C25.3089 9.6982 25.7851 9.71985 26.1494 9.96874Z" fill="#161616"/>
<defs>
<linearGradient id="paint0_linear_4465_1641" x1="0" y1="38" x2="38" y2="0" gradientUnits="userSpaceOnUse">
<stop stop-color="#B1E30B"/>
<stop offset="1" stop-color="#F7FFC4"/>
</linearGradient>
</defs>
</svg>
