<svg width="38" height="38" viewBox="0 0 38 38" fill="none" xmlns="http://www.w3.org/2000/svg">
<rect width="38" height="38" rx="19" fill="#FF060A"/>
<path d="M27 16.8202C26.25 16.1277 25.2125 15.0702 24.3675 14.3202L24.3175 14.2852C24.2343 14.2184 24.1405 14.166 24.04 14.1302C22.0025 13.7502 12.52 11.9777 12.335 12.0002C12.2832 12.0075 12.2336 12.0263 12.19 12.0552L12.1425 12.0927C12.084 12.1521 12.0396 12.2239 12.0125 12.3027L12 12.3352V12.5127V12.5402C13.0675 15.5127 17.2825 25.2502 18.1125 27.5352C18.1625 27.6902 18.2575 27.9852 18.435 28.0002H18.475C18.57 28.0002 18.975 27.4652 18.975 27.4652C18.975 27.4652 26.215 18.6852 26.9475 17.7502C27.0423 17.635 27.126 17.5112 27.1975 17.3802C27.2157 17.2778 27.2071 17.1723 27.1725 17.0742C27.1379 16.9761 27.0785 16.8886 27 16.8202ZM20.8325 17.8427L23.9225 15.2802L25.735 16.9502L20.8325 17.8427ZM19.6325 17.6752L14.3125 13.3152L22.92 14.9027L19.6325 17.6752ZM20.1125 18.8177L25.5575 17.9402L19.3325 25.4402L20.1125 18.8177ZM13.59 13.7502L19.1875 18.5002L18.3775 25.4452L13.59 13.7502Z" fill="white"/>
</svg>
