<svg width="38" height="38" viewBox="0 0 38 38" fill="none" xmlns="http://www.w3.org/2000/svg">
<path d="M19 38C29.4934 38 38 29.4934 38 19C38 8.50659 29.4934 0 19 0C8.50659 0 0 8.50659 0 19C0 29.4934 8.50659 38 19 38Z" fill="#26A17B"/>
<path fill-rule="evenodd" clip-rule="evenodd" d="M21.2823 20.6424V20.64C21.1517 20.6495 20.4784 20.6899 18.9762 20.6899C17.7768 20.6899 16.9325 20.6543 16.6356 20.64V20.6436C12.0186 20.4405 8.57251 19.6366 8.57251 18.6747C8.57251 17.714 12.0186 16.9101 16.6356 16.7035V19.8432C16.9373 19.8646 17.8018 19.9157 18.9964 19.9157C20.4297 19.9157 21.1481 19.8563 21.2823 19.8444V16.7058C25.8898 16.9113 29.3276 17.7152 29.3276 18.6747C29.3276 19.6366 25.8898 20.4382 21.2823 20.6424ZM21.2823 16.3793V13.5697H27.7115V9.28516H10.2065V13.5697H16.6356V16.3781C11.4106 16.618 7.4812 17.6535 7.4812 18.8932C7.4812 20.133 11.4106 21.1673 16.6356 21.4083V30.412H21.2823V21.406C26.499 21.1661 30.4189 20.1318 30.4189 18.8932C30.4189 17.6547 26.499 16.6203 21.2823 16.3793Z" fill="white"/>
</svg>
