<svg width="25" height="24" viewBox="0 0 25 24" fill="none" xmlns="http://www.w3.org/2000/svg">
<path d="M12.5 2.75C17.6089 2.75 21.75 6.89114 21.75 12V12.001C21.7514 13.2621 21.4942 14.5102 20.9941 15.668C20.4941 16.8258 19.7619 17.8688 18.8428 18.7324L18.8418 18.7334C17.2349 20.2513 15.1398 21.138 12.9414 21.2402L12.501 21.25H12.499C10.1414 21.2531 7.87208 20.3524 6.1582 18.7334L6.15723 18.7324C5.23813 17.8688 4.5059 16.8258 4.00586 15.668C3.50584 14.5102 3.2486 13.2621 3.25 12.001V12C3.25 6.89114 7.39115 2.75 12.5 2.75ZM12.5 14.5C11.3006 14.4989 10.1163 14.7679 9.03516 15.2871C7.95387 15.8064 7.00384 16.563 6.25488 17.5L5.97656 17.8477L6.29004 18.1641C7.10252 18.9847 8.0697 19.6362 9.13574 20.0801C10.2014 20.5238 11.3447 20.7503 12.499 20.749V20.75C13.6539 20.7515 14.7981 20.524 15.8643 20.0801C16.9303 19.6362 17.8975 18.9846 18.71 18.1641L19.0234 17.8477L18.7451 17.5C17.9962 16.563 17.0461 15.8064 15.9648 15.2871C14.8837 14.7679 13.6994 14.4989 12.5 14.5ZM12.5 4.75C11.3728 4.75 10.2921 5.19809 9.49512 5.99512C8.69809 6.79215 8.25 7.87283 8.25 9C8.25 10.1272 8.69809 11.2079 9.49512 12.0049C10.2921 12.8019 11.3728 13.25 12.5 13.25C13.6272 13.25 14.7079 12.8019 15.5049 12.0049C16.3019 11.2079 16.75 10.1272 16.75 9C16.75 7.87283 16.3019 6.79215 15.5049 5.99512C14.7079 5.19809 13.6272 4.75 12.5 4.75Z" fill="black" stroke="black"/>
</svg>
