<svg width="20" height="20" viewBox="0 0 20 20" fill="none" xmlns="http://www.w3.org/2000/svg">
<path d="M2.83335 2.83268C1.66669 4.01046 1.66669 5.89379 1.66669 9.66602V10.3327C1.66669 14.0993 1.66669 15.9827 2.83335 17.166C4.01113 18.3327 5.89447 18.3327 9.66669 18.3327H10.3334C14.1 18.3327 15.9834 18.3327 17.1667 17.166C18.3334 15.9882 18.3334 14.1049 18.3334 10.3327V9.66602C18.3334 5.89935 18.3334 4.01602 17.1667 2.83268C15.9889 1.66602 14.1056 1.66602 10.3334 1.66602H9.66669C5.90002 1.66602 4.01669 1.66602 2.83335 2.83268ZM4.47792 6.7384H6.38903C6.45014 9.9162 7.85014 11.2606 8.96122 11.5384V6.7384H10.7557V9.47731C11.8501 9.36065 13.0057 8.11062 13.3946 6.73284H15.1834C15.0376 7.44604 14.7462 8.12151 14.3275 8.71703C13.9089 9.3125 13.3719 9.81528 12.7501 10.194C13.444 10.5393 14.0568 11.0278 14.548 11.6273C15.0393 12.2268 15.3979 12.9235 15.6001 13.6718H13.6279C13.2057 12.3551 12.1501 11.3329 10.7557 11.194V13.6718H10.539H10.5334C6.73347 13.6718 4.56681 11.0718 4.47792 6.7384Z" fill="#161616"/>
</svg>
