<svg width="26" height="26" viewBox="0 0 26 26" fill="none" xmlns="http://www.w3.org/2000/svg">
<path d="M2.73259 6.27083C3.59957 5.50401 4.71754 5.08154 5.87498 5.08333H20.125C21.3294 5.08333 22.4293 5.53194 23.2674 6.27083C23.1709 5.50549 22.7985 4.80166 22.2199 4.29148C21.6413 3.7813 20.8964 3.49986 20.125 3.5H5.87498C5.10359 3.49986 4.35867 3.7813 3.78008 4.29148C3.20149 4.80166 2.82902 5.50549 2.73259 6.27083ZM2.73259 9.4375C3.59957 8.67068 4.71754 8.2482 5.87498 8.25H20.125C21.3294 8.25 22.4293 8.69861 23.2674 9.4375C23.1709 8.67216 22.7985 7.96833 22.2199 7.45815C21.6413 6.94797 20.8964 6.66653 20.125 6.66667H5.87498C5.10359 6.66653 4.35867 6.94797 3.78008 7.45815C3.20149 7.96833 2.82902 8.67216 2.73259 9.4375ZM5.87498 9.83333C5.03513 9.83333 4.22967 10.167 3.63581 10.7608C3.04194 11.3547 2.70831 12.1601 2.70831 13V19.3333C2.70831 20.1732 3.04194 20.9786 3.63581 21.5725C4.22967 22.1664 5.03513 22.5 5.87498 22.5H20.125C20.9648 22.5 21.7703 22.1664 22.3641 21.5725C22.958 20.9786 23.2916 20.1732 23.2916 19.3333V13C23.2916 12.1601 22.958 11.3547 22.3641 10.7608C21.7703 10.167 20.9648 9.83333 20.125 9.83333H16.1666C15.9567 9.83333 15.7553 9.91674 15.6069 10.0652C15.4584 10.2137 15.375 10.415 15.375 10.625C15.375 11.2549 15.1248 11.859 14.6794 12.3044C14.234 12.7498 13.6299 13 13 13C12.3701 13 11.766 12.7498 11.3206 12.3044C10.8752 11.859 10.625 11.2549 10.625 10.625C10.625 10.415 10.5416 10.2137 10.3931 10.0652C10.2446 9.91674 10.0433 9.83333 9.83331 9.83333H5.87498Z" fill="#161616"/>
</svg>
