<svg width="28" height="28" viewBox="0 0 28 28" fill="none" xmlns="http://www.w3.org/2000/svg">
<path d="M21.5597 13.477C21.6283 13.5456 21.6828 13.627 21.7199 13.7166C21.7571 13.8063 21.7762 13.9023 21.7762 13.9994C21.7762 14.0964 21.7571 14.1925 21.7199 14.2821C21.6828 14.3718 21.6283 14.4532 21.5597 14.5218L13.9868 22.09C13.0174 23.0593 11.7026 23.6038 10.3316 23.6037C8.9607 23.6036 7.64595 23.059 6.67661 22.0895C5.70727 21.12 5.16276 19.8052 5.16284 18.4343C5.16293 17.0633 5.70761 15.7486 6.67707 14.7793L15.8383 5.4833C16.5304 4.79044 17.4694 4.40091 18.4487 4.40039C19.4281 4.39987 20.3675 4.78841 21.0603 5.48053C21.7532 6.17265 22.1427 7.11166 22.1432 8.09098C22.1438 9.07031 21.7552 10.0097 21.0631 10.7026L11.9001 19.9985C11.4839 20.4147 10.9195 20.6485 10.331 20.6485C9.74254 20.6485 9.17815 20.4147 8.76202 19.9985C8.34589 19.5824 8.11211 19.018 8.11211 18.4295C8.11211 17.841 8.34589 17.2766 8.76202 16.8605L16.4502 9.0505C16.5175 8.97866 16.5986 8.92101 16.6885 8.88096C16.7785 8.8409 16.8756 8.81924 16.974 8.81726C17.0725 8.81528 17.1703 8.83301 17.2618 8.86942C17.3533 8.90582 17.4366 8.96016 17.5068 9.02924C17.577 9.09831 17.6327 9.18073 17.6705 9.27164C17.7084 9.36255 17.7277 9.46011 17.7272 9.55858C17.7268 9.65706 17.7067 9.75445 17.6681 9.84504C17.6295 9.93563 17.5731 10.0176 17.5024 10.0861L9.81326 17.9044C9.74442 17.9727 9.6897 18.0539 9.65223 18.1433C9.61476 18.2328 9.59528 18.3287 9.5949 18.4257C9.59451 18.5226 9.61323 18.6187 9.64998 18.7085C9.68674 18.7982 9.74081 18.8798 9.80911 18.9487C9.8774 19.0175 9.95859 19.0723 10.048 19.1097C10.1375 19.1472 10.2334 19.1667 10.3304 19.1671C10.4274 19.1674 10.5235 19.1487 10.6132 19.112C10.703 19.0752 10.7846 19.0211 10.8534 18.9528L20.0156 9.6615C20.4317 9.24623 20.6658 8.68265 20.6664 8.09477C20.667 7.50688 20.4341 6.94282 20.0188 6.5267C19.6035 6.11057 19.0399 5.87645 18.4521 5.87584C17.8642 5.87524 17.3001 6.10819 16.884 6.52346L7.72462 15.8157C7.38149 16.1583 7.1092 16.5651 6.92329 17.0129C6.73739 17.4608 6.6415 17.9408 6.64112 18.4257C6.64073 18.9105 6.73585 19.3907 6.92105 19.8388C7.10624 20.287 7.37789 20.6942 7.72047 21.0373C8.06305 21.3805 8.46986 21.6528 8.91767 21.8387C9.36549 22.0246 9.84553 22.1204 10.3304 22.1208C10.8153 22.1212 11.2955 22.0261 11.7436 21.8409C12.1917 21.6557 12.5989 21.3841 12.9421 21.0415L20.5158 13.4733C20.6547 13.3354 20.8428 13.2583 21.0385 13.259C21.2342 13.2597 21.4217 13.3381 21.5597 13.477Z" fill="white"/>
</svg>
