<svg width="101" height="101" viewBox="0 0 101 101" fill="none" xmlns="http://www.w3.org/2000/svg">
<path fill-rule="evenodd" clip-rule="evenodd" d="M20.1251 26.4531C20.1251 22.9566 22.9601 20.125 26.4532 20.125H41.6408C45.1373 20.125 47.9689 22.96 47.9689 26.4531V41.6406C47.9689 45.1371 45.1339 47.9688 41.6408 47.9688H26.4532C24.7749 47.9688 23.1653 47.302 21.9786 46.1153C20.7918 44.9285 20.1251 43.319 20.1251 41.6406V26.4531ZM26.4532 25.1875C26.1176 25.1875 25.7957 25.3208 25.5583 25.5582C25.321 25.7955 25.1876 26.1175 25.1876 26.4531V41.6406C25.1876 42.3393 25.7546 42.9063 26.4532 42.9063H41.6408C41.9764 42.9063 42.2983 42.7729 42.5357 42.5356C42.773 42.2982 42.9064 41.9763 42.9064 41.6406V26.4531C42.9064 26.1175 42.773 25.7955 42.5357 25.5582C42.2983 25.3208 41.9764 25.1875 41.6408 25.1875H26.4532ZM53.0314 26.4531C53.0314 22.9566 55.8664 20.125 59.3595 20.125H74.547C78.0401 20.125 80.8751 22.96 80.8751 26.4531V41.6406C80.8751 45.1371 78.0401 47.9688 74.547 47.9688H59.3595C57.6812 47.9688 56.0716 47.302 54.8848 46.1153C53.6981 44.9285 53.0314 43.319 53.0314 41.6406V26.4531ZM59.3595 25.1875C59.0238 25.1875 58.7019 25.3208 58.4646 25.5582C58.2272 25.7955 58.0939 26.1175 58.0939 26.4531V41.6406C58.0939 42.3393 58.6609 42.9063 59.3595 42.9063H74.547C74.8827 42.9063 75.2046 42.7729 75.4419 42.5356C75.6793 42.2982 75.8126 41.9763 75.8126 41.6406V26.4531C75.8126 26.1175 75.6793 25.7955 75.4419 25.5582C75.2046 25.3208 74.8827 25.1875 74.547 25.1875H59.3595ZM30.2501 32.7813C30.2501 32.1099 30.5168 31.4661 30.9915 30.9914C31.4662 30.5167 32.11 30.25 32.7814 30.25H35.3126C35.984 30.25 36.6278 30.5167 37.1025 30.9914C37.5772 31.4661 37.8439 32.1099 37.8439 32.7813V35.3125C37.8439 35.9838 37.5772 36.6277 37.1025 37.1024C36.6278 37.5771 35.984 37.8438 35.3126 37.8438H32.7814C32.11 37.8438 31.4662 37.5771 30.9915 37.1024C30.5168 36.6277 30.2501 35.9838 30.2501 35.3125V32.7813ZM63.1564 32.7813C63.1564 32.1099 63.4231 31.4661 63.8978 30.9914C64.3725 30.5167 65.0163 30.25 65.6876 30.25H68.2189C68.8902 30.25 69.534 30.5167 70.0087 30.9914C70.4834 31.4661 70.7501 32.1099 70.7501 32.7813V35.3125C70.7501 35.9838 70.4834 36.6277 70.0087 37.1024C69.534 37.5771 68.8902 37.8438 68.2189 37.8438H65.6876C65.0163 37.8438 64.3725 37.5771 63.8978 37.1024C63.4231 36.6277 63.1564 35.9838 63.1564 35.3125V32.7813ZM20.1251 59.3594C20.1251 55.8629 22.9601 53.0313 26.4532 53.0313H41.6408C45.1373 53.0313 47.9689 55.8663 47.9689 59.3594V74.5469C47.9689 78.04 45.1339 80.875 41.6408 80.875H26.4532C24.7749 80.875 23.1653 80.2083 21.9786 79.0215C20.7918 77.8348 20.1251 76.2252 20.1251 74.5469V59.3594ZM26.4532 58.0938C26.1176 58.0938 25.7957 58.2271 25.5583 58.4644C25.321 58.7018 25.1876 59.0237 25.1876 59.3594V74.5469C25.1876 75.2455 25.7546 75.8125 26.4532 75.8125H41.6408C41.9764 75.8125 42.2983 75.6792 42.5357 75.4418C42.773 75.2045 42.9064 74.8825 42.9064 74.5469V59.3594C42.9064 59.0237 42.773 58.7018 42.5357 58.4644C42.2983 58.2271 41.9764 58.0938 41.6408 58.0938H26.4532ZM53.0314 55.5625C53.0314 54.8912 53.2981 54.2473 53.7728 53.7726C54.2475 53.2979 54.8913 53.0313 55.5626 53.0313H58.0939C58.7652 53.0313 59.409 53.2979 59.8837 53.7726C60.3584 54.2473 60.6251 54.8912 60.6251 55.5625V58.0938C60.6251 58.7651 60.3584 59.4089 59.8837 59.8836C59.409 60.3583 58.7652 60.625 58.0939 60.625H55.5626C54.8913 60.625 54.2475 60.3583 53.7728 59.8836C53.2981 59.4089 53.0314 58.7651 53.0314 58.0938V55.5625ZM73.2814 55.5625C73.2814 54.8912 73.5481 54.2473 74.0228 53.7726C74.4975 53.2979 75.1413 53.0313 75.8126 53.0313H78.3439C79.0152 53.0313 79.659 53.2979 80.1337 53.7726C80.6084 54.2473 80.8751 54.8912 80.8751 55.5625V58.0938C80.8751 58.7651 80.6084 59.4089 80.1337 59.8836C79.659 60.3583 79.0152 60.625 78.3439 60.625H75.8126C75.1413 60.625 74.4975 60.3583 74.0228 59.8836C73.5481 59.4089 73.2814 58.7651 73.2814 58.0938V55.5625ZM30.2501 65.6875C30.2501 65.0162 30.5168 64.3723 30.9915 63.8976C31.4662 63.4229 32.11 63.1563 32.7814 63.1563H35.3126C35.984 63.1563 36.6278 63.4229 37.1025 63.8976C37.5772 64.3723 37.8439 65.0162 37.8439 65.6875V68.2188C37.8439 68.8901 37.5772 69.5339 37.1025 70.0086C36.6278 70.4833 35.984 70.75 35.3126 70.75H32.7814C32.11 70.75 31.4662 70.4833 30.9915 70.0086C30.5168 69.5339 30.2501 68.8901 30.2501 68.2188V65.6875ZM63.1564 65.6875C63.1564 65.0162 63.4231 64.3723 63.8978 63.8976C64.3725 63.4229 65.0163 63.1563 65.6876 63.1563H68.2189C68.8902 63.1563 69.534 63.4229 70.0087 63.8976C70.4834 64.3723 70.7501 65.0162 70.7501 65.6875V68.2188C70.7501 68.8901 70.4834 69.5339 70.0087 70.0086C69.534 70.4833 68.8902 70.75 68.2189 70.75H65.6876C65.0163 70.75 64.3725 70.4833 63.8978 70.0086C63.4231 69.5339 63.1564 68.8901 63.1564 68.2188V65.6875ZM53.0314 75.8125C53.0314 75.1412 53.2981 74.4973 53.7728 74.0226C54.2475 73.5479 54.8913 73.2813 55.5626 73.2813H58.0939C58.7652 73.2813 59.409 73.5479 59.8837 74.0226C60.3584 74.4973 60.6251 75.1412 60.6251 75.8125V78.3438C60.6251 79.0151 60.3584 79.6589 59.8837 80.1336C59.409 80.6083 58.7652 80.875 58.0939 80.875H55.5626C54.8913 80.875 54.2475 80.6083 53.7728 80.1336C53.2981 79.6589 53.0314 79.0151 53.0314 78.3438V75.8125ZM73.2814 75.8125C73.2814 75.1412 73.5481 74.4973 74.0228 74.0226C74.4975 73.5479 75.1413 73.2813 75.8126 73.2813H78.3439C79.0152 73.2813 79.659 73.5479 80.1337 74.0226C80.6084 74.4973 80.8751 75.1412 80.8751 75.8125V78.3438C80.8751 79.0151 80.6084 79.6589 80.1337 80.1336C79.659 80.6083 79.0152 80.875 78.3439 80.875H75.8126C75.1413 80.875 74.4975 80.6083 74.0228 80.1336C73.5481 79.6589 73.2814 79.0151 73.2814 78.3438V75.8125Z" fill="#161616"/>
<path fill-rule="evenodd" clip-rule="evenodd" d="M50.5 34.25C41.525 34.25 34.25 41.525 34.25 50.5C34.25 59.475 41.525 66.75 50.5 66.75C59.475 66.75 66.75 59.475 66.75 50.5C66.75 41.525 59.475 34.25 50.5 34.25ZM47.6333 45.8667C47.5189 45.7439 47.3809 45.6454 47.2276 45.577C47.0742 45.5087 46.9087 45.472 46.7409 45.469C46.573 45.4661 46.4063 45.4969 46.2507 45.5598C46.095 45.6227 45.9536 45.7162 45.8349 45.8349C45.7162 45.9536 45.6227 46.095 45.5598 46.2507C45.4969 46.4063 45.4661 46.573 45.469 46.7409C45.472 46.9087 45.5087 47.0742 45.577 47.2276C45.6454 47.3809 45.7439 47.5189 45.8667 47.6333L48.7333 50.5L45.8667 53.3667C45.7439 53.4811 45.6454 53.6191 45.577 53.7724C45.5087 53.9258 45.472 54.0913 45.469 54.2591C45.4661 54.427 45.4969 54.5937 45.5598 54.7493C45.6227 54.905 45.7162 55.0464 45.8349 55.1651C45.9536 55.2838 46.095 55.3773 46.2507 55.4402C46.4063 55.5031 46.573 55.5339 46.7409 55.531C46.9087 55.528 47.0742 55.4913 47.2276 55.423C47.3809 55.3546 47.5189 55.2561 47.6333 55.1333L50.5 52.2667L53.3667 55.1333C53.4811 55.2561 53.6191 55.3546 53.7724 55.423C53.9258 55.4913 54.0913 55.528 54.2591 55.531C54.427 55.5339 54.5937 55.5031 54.7493 55.4402C54.905 55.3773 55.0464 55.2838 55.1651 55.1651C55.2838 55.0464 55.3773 54.905 55.4402 54.7493C55.5031 54.5937 55.5339 54.427 55.531 54.2591C55.528 54.0913 55.4913 53.9258 55.423 53.7724C55.3546 53.6191 55.2561 53.4811 55.1333 53.3667L52.2667 50.5L55.1333 47.6333C55.2561 47.5189 55.3546 47.3809 55.423 47.2276C55.4913 47.0742 55.528 46.9087 55.531 46.7409C55.5339 46.573 55.5031 46.4063 55.4402 46.2507C55.3773 46.095 55.2838 45.9536 55.1651 45.8349C55.0464 45.7162 54.905 45.6227 54.7493 45.5598C54.5937 45.4969 54.427 45.4661 54.2591 45.469C54.0913 45.472 53.9258 45.5087 53.7724 45.577C53.6191 45.6454 53.4811 45.7439 53.3667 45.8667L50.5 48.7333L47.6333 45.8667Z" fill="#E62320"/>
<path d="M47.6333 45.8667C47.5189 45.7439 47.3809 45.6454 47.2276 45.577C47.0742 45.5087 46.9087 45.472 46.7409 45.469C46.573 45.4661 46.4063 45.4969 46.2507 45.5598C46.095 45.6227 45.9536 45.7162 45.8349 45.8349C45.7162 45.9536 45.6227 46.095 45.5598 46.2507C45.4969 46.4063 45.4661 46.573 45.469 46.7409C45.472 46.9087 45.5087 47.0742 45.577 47.2276C45.6454 47.3809 45.7439 47.5189 45.8667 47.6333L48.7333 50.5L45.8667 53.3667C45.7439 53.4811 45.6454 53.6191 45.577 53.7724C45.5087 53.9258 45.472 54.0913 45.469 54.2591C45.4661 54.427 45.4969 54.5937 45.5598 54.7493C45.6227 54.905 45.7162 55.0464 45.8349 55.1651C45.9536 55.2838 46.095 55.3773 46.2507 55.4402C46.4063 55.5031 46.573 55.5339 46.7409 55.531C46.9087 55.528 47.0742 55.4913 47.2276 55.423C47.3809 55.3546 47.5189 55.2561 47.6333 55.1333L50.5 52.2667L53.3667 55.1333C53.4811 55.2561 53.6191 55.3546 53.7724 55.423C53.9258 55.4913 54.0913 55.528 54.2591 55.531C54.427 55.5339 54.5937 55.5031 54.7493 55.4402C54.905 55.3773 55.0464 55.2838 55.1651 55.1651C55.2838 55.0464 55.3773 54.905 55.4402 54.7493C55.5031 54.5937 55.5339 54.427 55.531 54.2591C55.528 54.0913 55.4913 53.9258 55.423 53.7724C55.3546 53.6191 55.2561 53.4811 55.1333 53.3667L52.2667 50.5L55.1333 47.6333C55.2561 47.5189 55.3546 47.3809 55.423 47.2276C55.4913 47.0742 55.528 46.9087 55.531 46.7409C55.5339 46.573 55.5031 46.4063 55.4402 46.2507C55.3773 46.095 55.2838 45.9536 55.1651 45.8349C55.0464 45.7162 54.905 45.6227 54.7493 45.5598C54.5937 45.4969 54.427 45.4661 54.2591 45.469C54.0913 45.472 53.9258 45.5087 53.7724 45.577C53.6191 45.6454 53.4811 45.7439 53.3667 45.8667L50.5 48.7333L47.6333 45.8667Z" fill="#E62320"/>
<path d="M47.6333 45.8667C47.5189 45.7439 47.3809 45.6454 47.2276 45.577C47.0742 45.5087 46.9087 45.472 46.7409 45.469C46.573 45.4661 46.4063 45.4969 46.2507 45.5598C46.095 45.6227 45.9536 45.7162 45.8349 45.8349C45.7162 45.9536 45.6227 46.095 45.5598 46.2507C45.4969 46.4063 45.4661 46.573 45.469 46.7409C45.472 46.9087 45.5087 47.0742 45.577 47.2276C45.6454 47.3809 45.7439 47.5189 45.8667 47.6333L48.7333 50.5L45.8667 53.3667C45.7439 53.4811 45.6454 53.6191 45.577 53.7724C45.5087 53.9258 45.472 54.0913 45.469 54.2591C45.4661 54.427 45.4969 54.5937 45.5598 54.7493C45.6227 54.905 45.7162 55.0464 45.8349 55.1651C45.9536 55.2838 46.095 55.3773 46.2507 55.4402C46.4063 55.5031 46.573 55.5339 46.7409 55.531C46.9087 55.528 47.0742 55.4913 47.2276 55.423C47.3809 55.3546 47.5189 55.2561 47.6333 55.1333L50.5 52.2667L53.3667 55.1333C53.4811 55.2561 53.6191 55.3546 53.7724 55.423C53.9258 55.4913 54.0913 55.528 54.2591 55.531C54.427 55.5339 54.5937 55.5031 54.7493 55.4402C54.905 55.3773 55.0464 55.2838 55.1651 55.1651C55.2838 55.0464 55.3773 54.905 55.4402 54.7493C55.5031 54.5937 55.5339 54.427 55.531 54.2591C55.528 54.0913 55.4913 53.9258 55.423 53.7724C55.3546 53.6191 55.2561 53.4811 55.1333 53.3667L52.2667 50.5L55.1333 47.6333C55.2561 47.5189 55.3546 47.3809 55.423 47.2276C55.4913 47.0742 55.528 46.9087 55.531 46.7409C55.5339 46.573 55.5031 46.4063 55.4402 46.2507C55.3773 46.095 55.2838 45.9536 55.1651 45.8349C55.0464 45.7162 54.905 45.6227 54.7493 45.5598C54.5937 45.4969 54.427 45.4661 54.2591 45.469C54.0913 45.472 53.9258 45.5087 53.7724 45.577C53.6191 45.6454 53.4811 45.7439 53.3667 45.8667L50.5 48.7333L47.6333 45.8667Z" fill="white"/>
</svg>
