<svg width="28" height="28" viewBox="0 0 28 28" fill="none" xmlns="http://www.w3.org/2000/svg">
<path d="M16.6409 4.30273H11.359C10.597 4.30273 10.3199 4.92617 10.3199 5.68815H17.68C17.68 4.92617 17.4029 4.30273 16.6409 4.30273ZM11.4066 9.30322C11.7357 9.68421 11.9218 10.1691 11.9218 10.6757V22.1876C11.9218 23.1357 12.6968 23.6986 13.6493 23.6986H14.355C15.3031 23.6986 16.0824 23.1401 16.0824 22.1876V10.6757C16.0824 10.1691 16.2686 9.68854 16.5976 9.30322C17.2643 8.52826 17.68 7.80957 17.68 6.38086H10.3199C10.3199 7.89616 10.7356 8.52826 11.4066 9.30322ZM12.7877 13.2343C12.7877 12.559 13.3332 12.0091 14 12.0091C14.6667 12.0091 15.2122 12.559 15.2122 13.2343V14.767C15.2122 15.4424 14.6667 15.9922 14 15.9922C13.3332 15.9922 12.7877 15.4424 12.7877 14.767V13.2343Z" fill="white"/>
<path d="M13.9999 15.6019C14.4781 15.6019 14.8658 15.2142 14.8658 14.736C14.8658 14.2578 14.4781 13.8701 13.9999 13.8701C13.5217 13.8701 13.134 14.2578 13.134 14.736C13.134 15.2142 13.5217 15.6019 13.9999 15.6019Z" fill="white"/>
</svg>
