<svg width="35" height="34" viewBox="0 0 35 34" fill="none" xmlns="http://www.w3.org/2000/svg">
<path fill-rule="evenodd" clip-rule="evenodd" d="M17.8333 3.1875C10.2046 3.1875 4.02081 9.37125 4.02081 17C4.02081 24.6287 10.2046 30.8125 17.8333 30.8125C25.4621 30.8125 31.6458 24.6287 31.6458 17C31.6458 9.37125 25.4621 3.1875 17.8333 3.1875ZM18.5841 10.9367C18.3849 10.7377 18.1149 10.6259 17.8333 10.6259C17.5517 10.6259 17.2817 10.7377 17.0825 10.9367L12.8325 15.1867C12.7281 15.2839 12.6444 15.4012 12.5863 15.5316C12.5282 15.6619 12.497 15.8026 12.4945 15.9453C12.492 16.0879 12.5182 16.2296 12.5716 16.3619C12.6251 16.4942 12.7046 16.6144 12.8055 16.7153C12.9064 16.8162 13.0266 16.8957 13.1589 16.9492C13.2912 17.0026 13.4329 17.0289 13.5756 17.0263C13.7182 17.0238 13.8589 16.9926 13.9892 16.9345C14.1196 16.8765 14.2369 16.7927 14.3341 16.6883L16.7708 14.2517V22.3125C16.7708 22.5943 16.8828 22.8645 17.082 23.0638C17.2813 23.2631 17.5515 23.375 17.8333 23.375C18.1151 23.375 18.3854 23.2631 18.5846 23.0638C18.7839 22.8645 18.8958 22.5943 18.8958 22.3125V14.2517L21.3325 16.6883C21.4298 16.7927 21.5471 16.8765 21.6774 16.9345C21.8077 16.9926 21.9484 17.0238 22.0911 17.0263C22.2337 17.0289 22.3754 17.0026 22.5077 16.9492C22.64 16.8957 22.7602 16.8162 22.8611 16.7153C22.962 16.6144 23.0415 16.4942 23.095 16.3619C23.1484 16.2296 23.1747 16.0879 23.1722 15.9453C23.1696 15.8026 23.1384 15.6619 23.0803 15.5316C23.0223 15.4012 22.9385 15.2839 22.8341 15.1867L18.5841 10.9367Z" fill="#447303"/>
</svg>
