<svg width="24" height="25" viewBox="0 0 24 25" fill="none" xmlns="http://www.w3.org/2000/svg">
<path d="M8.875 18.5C8.35937 18.5 7.91796 18.3164 7.55078 17.9492C7.18359 17.582 7 17.1406 7 16.625V4.625C7 4.10937 7.18359 3.66796 7.55078 3.30078C7.91796 2.93359 8.35937 2.75 8.875 2.75H17.875C18.3906 2.75 18.832 2.93359 19.1992 3.30078C19.5664 3.66796 19.75 4.10937 19.75 4.625V16.625C19.75 17.1406 19.5664 17.582 19.1992 17.9492C18.832 18.3164 18.3906 18.5 17.875 18.5H8.875ZM8.875 16.625H17.875V4.625H8.875V16.625ZM5.125 22.25C4.60937 22.25 4.16796 22.0664 3.80078 21.6992C3.43359 21.332 3.25 20.8906 3.25 20.375V6.5H5.125V20.375H16V22.25H5.125Z" fill="#3C3C43" fill-opacity="0.6"/>
</svg>
