<svg width="20" height="20" viewBox="0 0 20 20" fill="none" xmlns="http://www.w3.org/2000/svg">
<path d="M18.1008 10.6265C18.2138 9.19146 17.942 7.75227 17.3133 6.45732C16.2728 7.44598 15.0428 8.21363 13.6975 8.71398C13.8057 10.0418 13.7457 11.3779 13.5192 12.6906C15.1562 12.2784 16.7074 11.5795 18.1008 10.6265ZM12.195 12.9581C12.4612 11.6857 12.5542 10.3831 12.4717 9.08565C11.6783 9.27482 10.8508 9.37482 9.99999 9.37482C9.14916 9.37482 8.32166 9.27482 7.52833 9.08565C7.4477 10.383 7.54074 11.6854 7.80499 12.9581C9.25983 13.1811 10.7402 13.1811 12.195 12.9581ZM8.14333 14.2656C9.3768 14.4116 10.6232 14.4116 11.8567 14.2656C11.4327 15.6303 10.8069 16.9238 9.99999 18.1032C9.19306 16.9238 8.56723 15.6303 8.14333 14.2656ZM6.48083 12.6915C6.25303 11.3783 6.1931 10.0415 6.30249 8.71315C4.9569 8.21292 3.72659 7.44526 2.68583 6.45648C2.05734 7.75176 1.78578 9.19125 1.89916 10.6265C3.29261 11.5795 4.84376 12.2792 6.48083 12.6915ZM17.7967 12.2931C17.3759 13.7189 16.5726 15.0022 15.4741 16.0037C14.3755 17.0052 13.0235 17.6866 11.565 17.974C12.2954 16.7459 12.8529 15.4228 13.2217 14.0423C14.8296 13.7053 16.3738 13.1152 17.7967 12.294V12.2931ZM2.20333 12.2931C3.60499 13.1023 5.14499 13.6998 6.77833 14.0423C7.14708 15.4228 7.70456 16.7459 8.43499 17.974C6.97657 17.6867 5.6247 17.0054 4.52611 16.0041C3.42753 15.0027 2.6242 13.7196 2.20333 12.294V12.2931ZM11.565 2.02482C13.6298 2.43066 15.4567 3.62134 16.6617 5.34648C15.7722 6.24513 14.7104 6.95488 13.54 7.43315C13.2246 5.523 12.5548 3.68868 11.565 2.02482ZM9.99999 1.89648C11.2162 3.67323 12.0152 5.70179 12.3375 7.83065C11.59 8.02232 10.8067 8.12482 9.99999 8.12482C9.19333 8.12482 8.40999 8.02315 7.66249 7.83065C7.98473 5.70178 8.78379 3.67322 9.99999 1.89648ZM8.43499 2.02482C7.44518 3.68867 6.77533 5.52299 6.45999 7.43315C5.28954 6.9549 4.22775 6.24515 3.33833 5.34648C4.54336 3.62159 6.37032 2.43037 8.43499 2.02482Z" fill="#161616"/>
</svg>
