<svg width="35" height="34" viewBox="0 0 35 34" fill="none" xmlns="http://www.w3.org/2000/svg">
<path d="M7.60419 9.03125C7.60419 7.48139 8.21987 5.99501 9.31578 4.89909C10.4117 3.80318 11.8981 3.1875 13.4479 3.1875C14.9978 3.1875 16.4842 3.80318 17.5801 4.89909C18.676 5.99501 19.2917 7.48139 19.2917 9.03125C19.2917 10.5811 18.676 12.0675 17.5801 13.1634C16.4842 14.2593 14.9978 14.875 13.4479 14.875C11.8981 14.875 10.4117 14.2593 9.31578 13.1634C8.21987 12.0675 7.60419 10.5811 7.60419 9.03125ZM3.35419 27.0938C3.35419 24.4167 4.41763 21.8493 6.31058 19.9564C8.20352 18.0634 10.7709 17 13.4479 17C16.125 17 18.6924 18.0634 20.5853 19.9564C22.4782 21.8493 23.5417 24.4167 23.5417 27.0938V27.098L23.5403 27.2666C23.5373 27.4467 23.4885 27.6232 23.3985 27.7793C23.3086 27.9354 23.1804 28.0661 23.026 28.1591C20.1349 29.9001 16.8228 30.8177 13.4479 30.8125C9.94594 30.8125 6.66777 29.8435 3.87127 28.1591C3.71664 28.0663 3.58817 27.9357 3.49796 27.7796C3.40775 27.6234 3.35876 27.4469 3.3556 27.2666L3.35419 27.0938ZM26.7292 10.625C26.7292 10.3432 26.6172 10.073 26.418 9.8737C26.2187 9.67444 25.9485 9.5625 25.6667 9.5625C25.3849 9.5625 25.1146 9.67444 24.9154 9.8737C24.7161 10.073 24.6042 10.3432 24.6042 10.625V13.8125H21.4167C21.1349 13.8125 20.8646 13.9244 20.6654 14.1237C20.4661 14.323 20.3542 14.5932 20.3542 14.875C20.3542 15.1568 20.4661 15.427 20.6654 15.6263C20.8646 15.8256 21.1349 15.9375 21.4167 15.9375H24.6042V19.125C24.6042 19.4068 24.7161 19.677 24.9154 19.8763C25.1146 20.0756 25.3849 20.1875 25.6667 20.1875C25.9485 20.1875 26.2187 20.0756 26.418 19.8763C26.6172 19.677 26.7292 19.4068 26.7292 19.125V15.9375H29.9167C30.1985 15.9375 30.4687 15.8256 30.668 15.6263C30.8672 15.427 30.9792 15.1568 30.9792 14.875C30.9792 14.5932 30.8672 14.323 30.668 14.1237C30.4687 13.9244 30.1985 13.8125 29.9167 13.8125H26.7292V10.625Z" fill="#447303"/>
</svg>
