<svg width="35" height="34" viewBox="0 0 35 34" fill="none" xmlns="http://www.w3.org/2000/svg">
<path d="M17.5 10.625C16.6546 10.625 15.8439 10.9608 15.2461 11.5586C14.6483 12.1564 14.3125 12.9671 14.3125 13.8125C14.3125 14.6579 14.6483 15.4686 15.2461 16.0664C15.8439 16.6642 16.6546 17 17.5 17C18.3454 17 19.1561 16.6642 19.7539 16.0664C20.3517 15.4686 20.6875 14.6579 20.6875 13.8125C20.6875 12.9671 20.3517 12.1564 19.7539 11.5586C19.1561 10.9608 18.3454 10.625 17.5 10.625Z" fill="#447303"/>
<path fill-rule="evenodd" clip-rule="evenodd" d="M2.625 6.90625C2.625 5.43858 3.815 4.25 5.28125 4.25H29.7188C31.185 4.25 32.375 5.44 32.375 6.90625V20.7188C32.375 22.1864 31.185 23.375 29.7188 23.375H5.28125C4.93243 23.375 4.58702 23.3063 4.26475 23.1728C3.94248 23.0393 3.64965 22.8437 3.403 22.597C3.15634 22.3503 2.96068 22.0575 2.82719 21.7353C2.69371 21.413 2.625 21.0676 2.625 20.7188V6.90625ZM12.1875 13.8125C12.1875 12.4035 12.7472 11.0523 13.7435 10.056C14.7398 9.05971 16.091 8.5 17.5 8.5C18.909 8.5 20.2602 9.05971 21.2565 10.056C22.2528 11.0523 22.8125 12.4035 22.8125 13.8125C22.8125 15.2215 22.2528 16.5727 21.2565 17.569C20.2602 18.5653 18.909 19.125 17.5 19.125C16.091 19.125 14.7398 18.5653 13.7435 17.569C12.7472 16.5727 12.1875 15.2215 12.1875 13.8125ZM27.0625 12.75C26.7807 12.75 26.5105 12.8619 26.3112 13.0612C26.1119 13.2605 26 13.5307 26 13.8125V13.8238C26 14.4103 26.476 14.8863 27.0625 14.8863H27.0738C27.3556 14.8863 27.6259 14.7744 27.8251 14.5751C28.0244 14.3759 28.1363 14.1056 28.1363 13.8238V13.8125C28.1363 13.5307 28.0244 13.2605 27.8251 13.0612C27.6259 12.8619 27.3556 12.75 27.0738 12.75H27.0625ZM6.875 13.8125C6.875 13.5307 6.98694 13.2605 7.1862 13.0612C7.38546 12.8619 7.65571 12.75 7.9375 12.75H7.94883C8.23063 12.75 8.50088 12.8619 8.70013 13.0612C8.89939 13.2605 9.01133 13.5307 9.01133 13.8125V13.8238C9.01133 14.1056 8.89939 14.3759 8.70013 14.5751C8.50088 14.7744 8.23063 14.8863 7.94883 14.8863H7.9375C7.65571 14.8863 7.38546 14.7744 7.1862 14.5751C6.98694 14.3759 6.875 14.1056 6.875 13.8238V13.8125Z" fill="#447303"/>
<path d="M3.6875 25.5C3.40571 25.5 3.13546 25.6119 2.9362 25.8112C2.73694 26.0105 2.625 26.2807 2.625 26.5625C2.625 26.8443 2.73694 27.1145 2.9362 27.3138C3.13546 27.5131 3.40571 27.625 3.6875 27.625C11.3375 27.625 18.7467 28.6478 25.7875 30.5646C27.4733 31.0236 29.1875 29.7741 29.1875 27.9862V26.5625C29.1875 26.2807 29.0756 26.0105 28.8763 25.8112C28.677 25.6119 28.4068 25.5 28.125 25.5H3.6875Z" fill="#447303"/>
</svg>
