<svg width="20" height="20" viewBox="0 0 20 20" fill="none" xmlns="http://www.w3.org/2000/svg">
<path d="M17.8791 1.85035C18.2078 2.07816 18.3803 2.47196 18.3185 2.86576L16.2356 16.4046C16.1868 16.7203 15.9948 16.9969 15.7149 17.1532C15.435 17.3094 15.0998 17.3289 14.8036 17.2052L10.9112 15.5877L8.68183 17.9993C8.39217 18.315 7.93654 18.4192 7.53623 18.263C7.13592 18.1067 6.87556 17.7195 6.87556 17.2899V14.5691C6.87556 14.4389 6.92438 14.3152 7.01225 14.2176L12.4668 8.26829C12.6556 8.06325 12.6491 7.74756 12.4538 7.55229C12.2586 7.35702 11.9429 7.344 11.7378 7.52951L5.11811 13.4104L2.24436 11.9719C1.89938 11.7995 1.67807 11.4545 1.66831 11.0704C1.65854 10.6864 1.86033 10.3284 2.19229 10.1364L16.7726 1.80478C17.1208 1.60626 17.5504 1.62578 17.8791 1.85035Z" fill="#161616"/>
</svg>
